<svg xmlns="http://www.w3.org/2000/svg" xmlns:xlink="http://www.w3.org/1999/xlink" width="126.076" height="50" viewBox="0 0 126.076 50">
  <defs>
    <filter id="Path_36" x="0" y="0" width="126.076" height="50" filterUnits="userSpaceOnUse">
      <feOffset dy="3" input="SourceAlpha"/>
      <feGaussianBlur stdDeviation="3" result="blur"/>
      <feFlood flood-opacity="0.161"/>
      <feComposite operator="in" in2="blur"/>
      <feComposite in="SourceGraphic"/>
    </filter>
  </defs>
  <g id="apple_store" data-name="apple store" transform="translate(9 6)">
    <g id="Group_160" data-name="Group 160">
      <g transform="matrix(1, 0, 0, 1, -9, -6)" filter="url(#Path_36)">
        <path id="Path_36-2" data-name="Path 36" d="M108.966,29.682a3.159,3.159,0,0,1-3.112,3.208H4.006A3.163,3.163,0,0,1,.89,29.682V4.1A3.167,3.167,0,0,1,4.006.89H105.853A3.163,3.163,0,0,1,108.965,4.1v25.58Z" transform="translate(8.11 5.11)"/>
      </g>
      <g id="Group_156" data-name="Group 156" transform="translate(9.661 4.194)">
        <g id="Group_155" data-name="Group 155">
          <path id="Path_37" data-name="Path 37" d="M26.864,18.344a4.668,4.668,0,0,1,2.241-3.919,4.832,4.832,0,0,0-3.8-2.037c-1.6-.167-3.145.948-3.959.948-.83,0-2.082-.932-3.432-.9a5.058,5.058,0,0,0-4.253,2.575c-1.839,3.161-.468,7.806,1.295,10.361.882,1.251,1.912,2.648,3.26,2.6,1.319-.054,1.812-.835,3.4-.835s2.04.835,3.415.8c1.416-.023,2.307-1.257,3.158-2.519A10.3,10.3,0,0,0,29.64,22.5,4.52,4.52,0,0,1,26.864,18.344Z" transform="translate(-12.792 -7.413)" fill="#fff"/>
          <path id="Path_38" data-name="Path 38" d="M26.209,9.512a4.575,4.575,0,0,0,1.06-3.295,4.73,4.73,0,0,0-3.05,1.566,4.355,4.355,0,0,0-1.088,3.173A3.908,3.908,0,0,0,26.209,9.512Z" transform="translate(-14.734 -6.217)" fill="#fff"/>
        </g>
      </g>
    </g>
    <g id="Group_157" data-name="Group 157" transform="translate(33.703 15.002)">
      <path id="Path_39" data-name="Path 39" d="M51.53,28.918H49.686l-1.01-3.15h-3.51l-.962,3.15H42.41L45.887,18.2h2.148Zm-3.158-4.471-.913-2.8q-.145-.429-.545-2.02h-.032q-.159.684-.513,2.02l-.9,2.8Z" transform="translate(-42.41 -18.039)" fill="#fff"/>
      <path id="Path_40" data-name="Path 40" d="M62.922,25.64a4.374,4.374,0,0,1-1.074,3.117,3.151,3.151,0,0,1-2.388,1.018,2.393,2.393,0,0,1-2.212-1.1h-.032v4.073H55.485V24.415q0-1.24-.064-2.545h1.522l.1,1.225h.032a3.093,3.093,0,0,1,4.928-.3A4.239,4.239,0,0,1,62.922,25.64Zm-1.763.063a3.166,3.166,0,0,0-.513-1.861,1.776,1.776,0,0,0-1.507-.764,1.808,1.808,0,0,0-1.162.421,1.952,1.952,0,0,0-.681,1.106,2.234,2.234,0,0,0-.08.524v1.289a2.057,2.057,0,0,0,.521,1.425,1.733,1.733,0,0,0,1.354.581,1.776,1.776,0,0,0,1.522-.748A3.273,3.273,0,0,0,61.159,25.7Z" transform="translate(-44.86 -18.722)" fill="#fff"/>
      <path id="Path_41" data-name="Path 41" d="M73.959,25.64a4.37,4.37,0,0,1-1.075,3.117A3.148,3.148,0,0,1,70.5,29.776a2.391,2.391,0,0,1-2.211-1.1h-.032v4.073H66.523V24.415q0-1.24-.064-2.545h1.522l.1,1.225h.032a3.094,3.094,0,0,1,4.929-.3A4.251,4.251,0,0,1,73.959,25.64ZM72.2,25.7a3.166,3.166,0,0,0-.514-1.861,1.774,1.774,0,0,0-1.506-.764,1.81,1.81,0,0,0-1.162.421,1.951,1.951,0,0,0-.68,1.106,2.277,2.277,0,0,0-.08.524v1.289a2.063,2.063,0,0,0,.52,1.425,1.737,1.737,0,0,0,1.356.581,1.776,1.776,0,0,0,1.522-.748A3.273,3.273,0,0,0,72.2,25.7Z" transform="translate(-46.938 -18.722)" fill="#fff"/>
      <path id="Path_42" data-name="Path 42" d="M86.485,25.874a2.848,2.848,0,0,1-.959,2.227,4.273,4.273,0,0,1-2.943.939,5.181,5.181,0,0,1-2.8-.668l.4-1.432a4.771,4.771,0,0,0,2.5.685,2.378,2.378,0,0,0,1.524-.438,1.427,1.427,0,0,0,.544-1.172,1.488,1.488,0,0,0-.449-1.1,4.181,4.181,0,0,0-1.49-.829q-2.837-1.05-2.836-3.075a2.712,2.712,0,0,1,.994-2.167A3.939,3.939,0,0,1,83.617,18a5.276,5.276,0,0,1,2.451.509l-.433,1.4a4.279,4.279,0,0,0-2.067-.493,2.1,2.1,0,0,0-1.425.446,1.269,1.269,0,0,0-.433.971,1.307,1.307,0,0,0,.5,1.05,5.619,5.619,0,0,0,1.571.827,5.336,5.336,0,0,1,2.051,1.3A2.711,2.711,0,0,1,86.485,25.874Z" transform="translate(-49.446 -18.001)" fill="#fff"/>
      <path id="Path_43" data-name="Path 43" d="M93.988,22.733H92.08v3.754q0,1.432,1.01,1.432a3.1,3.1,0,0,0,.769-.08l.048,1.3a3.948,3.948,0,0,1-1.346.19,2.085,2.085,0,0,1-1.6-.62,3.032,3.032,0,0,1-.577-2.084v-3.9H89.244V21.442H90.38V20.026l1.7-.509v1.925h1.908v1.291Z" transform="translate(-51.227 -18.296)" fill="#fff"/>
      <path id="Path_44" data-name="Path 44" d="M103.921,25.672A4.222,4.222,0,0,1,102.9,28.6a3.676,3.676,0,0,1-2.854,1.177,3.5,3.5,0,0,1-2.731-1.129A4.093,4.093,0,0,1,96.292,25.8a4.181,4.181,0,0,1,1.05-2.942,3.646,3.646,0,0,1,2.828-1.146,3.57,3.57,0,0,1,2.757,1.13A4.046,4.046,0,0,1,103.921,25.672Zm-1.8.056a3.457,3.457,0,0,0-.464-1.835,1.711,1.711,0,0,0-1.554-.925,1.738,1.738,0,0,0-1.587.925,3.524,3.524,0,0,0-.464,1.867,3.453,3.453,0,0,0,.464,1.834,1.775,1.775,0,0,0,3.125-.016A3.47,3.47,0,0,0,102.126,25.728Z" transform="translate(-52.554 -18.722)" fill="#fff"/>
      <path id="Path_45" data-name="Path 45" d="M111.654,23.38a3.027,3.027,0,0,0-.545-.048,1.639,1.639,0,0,0-1.411.685,2.56,2.56,0,0,0-.433,1.527V29.6h-1.73l.016-5.3q0-1.337-.065-2.434h1.507l.063,1.479h.048a2.644,2.644,0,0,1,.865-1.225,2.1,2.1,0,0,1,1.251-.414,2.8,2.8,0,0,1,.433.031V23.38Z" transform="translate(-54.662 -18.722)" fill="#fff"/>
      <path id="Path_46" data-name="Path 46" d="M120.55,25.366a4,4,0,0,1-.063.779H115.3a2.236,2.236,0,0,0,.753,1.751,2.584,2.584,0,0,0,1.7.541,5.781,5.781,0,0,0,2.1-.366l.271,1.192a6.537,6.537,0,0,1-2.611.478,3.8,3.8,0,0,1-2.846-1.058,3.89,3.89,0,0,1-1.033-2.839,4.408,4.408,0,0,1,.963-2.911,3.327,3.327,0,0,1,2.723-1.24,2.91,2.91,0,0,1,2.55,1.24A4.159,4.159,0,0,1,120.55,25.366Zm-1.65-.446a2.32,2.32,0,0,0-.336-1.321,1.515,1.515,0,0,0-1.379-.716,1.646,1.646,0,0,0-1.378.7,2.552,2.552,0,0,0-.512,1.336h3.6Z" transform="translate(-55.818 -18.718)" fill="#fff"/>
    </g>
    <g id="Group_159" data-name="Group 159" transform="translate(34.731 4.52)">
      <g id="Group_158" data-name="Group 158">
        <path id="Path_47" data-name="Path 47" d="M48.038,9.394a2.635,2.635,0,0,1-.859,2.142,3.434,3.434,0,0,1-2.259.664,10.551,10.551,0,0,1-1.244-.063V6.956a9.25,9.25,0,0,1,1.465-.11,3.175,3.175,0,0,1,2.1.6A2.423,2.423,0,0,1,48.038,9.394Zm-.9.023A1.917,1.917,0,0,0,46.649,8a1.948,1.948,0,0,0-1.438-.492,3.626,3.626,0,0,0-.685.055V11.5a4.525,4.525,0,0,0,.575.023,2.021,2.021,0,0,0,1.507-.539A2.149,2.149,0,0,0,47.141,9.418Z" transform="translate(-43.676 -6.612)" fill="#fff"/>
        <path id="Path_48" data-name="Path 48" d="M54.04,10.568a2.074,2.074,0,0,1-.5,1.438,1.806,1.806,0,0,1-1.4.579,1.716,1.716,0,0,1-1.343-.555,2.013,2.013,0,0,1-.5-1.4,2.054,2.054,0,0,1,.515-1.445,1.794,1.794,0,0,1,1.39-.562,1.756,1.756,0,0,1,1.355.554A2,2,0,0,1,54.04,10.568Zm-.882.027a1.708,1.708,0,0,0-.228-.9.841.841,0,0,0-.763-.454.854.854,0,0,0-.78.454,1.731,1.731,0,0,0-.228.917,1.708,1.708,0,0,0,.228.9.86.86,0,0,0,.772.454.85.85,0,0,0,.763-.462A1.7,1.7,0,0,0,53.157,10.6Z" transform="translate(-44.922 -6.958)" fill="#fff"/>
        <path id="Path_49" data-name="Path 49" d="M61.479,8.719l-1.2,3.8H59.5l-.5-1.649A12.271,12.271,0,0,1,58.7,9.641h-.015a8.93,8.93,0,0,1-.308,1.227l-.527,1.649h-.788l-1.126-3.8h.874l.433,1.806q.157.641.26,1.219h.015q.095-.476.316-1.211l.543-1.813h.693l.52,1.774q.189.649.307,1.25h.024a11.867,11.867,0,0,1,.26-1.25l.464-1.774h.835Z" transform="translate(-45.984 -6.976)" fill="#fff"/>
        <path id="Path_50" data-name="Path 50" d="M67.42,12.5h-.851V10.322q0-1.006-.771-1.006a.77.77,0,0,0-.614.276.976.976,0,0,0-.236.651V12.5H64.1V9.785q0-.5-.031-1.087h.748l.04.594h.024a1.224,1.224,0,0,1,.441-.458,1.446,1.446,0,0,1,.771-.214,1.226,1.226,0,0,1,.89.344,1.664,1.664,0,0,1,.441,1.259Z" transform="translate(-47.515 -6.957)" fill="#fff"/>
        <path id="Path_51" data-name="Path 51" d="M70.891,12.1h-.85V6.556h.85Z" transform="translate(-48.64 -6.556)" fill="#fff"/>
        <path id="Path_52" data-name="Path 52" d="M76.389,10.568a2.074,2.074,0,0,1-.5,1.438,1.807,1.807,0,0,1-1.4.579,1.714,1.714,0,0,1-1.343-.555,2.013,2.013,0,0,1-.5-1.4,2.054,2.054,0,0,1,.515-1.445,1.794,1.794,0,0,1,1.389-.562,1.758,1.758,0,0,1,1.356.554A2,2,0,0,1,76.389,10.568Zm-.883.027a1.708,1.708,0,0,0-.228-.9.84.84,0,0,0-.762-.454.853.853,0,0,0-.78.454,1.731,1.731,0,0,0-.228.917,1.708,1.708,0,0,0,.228.9.86.86,0,0,0,.772.454.848.848,0,0,0,.762-.462A1.69,1.69,0,0,0,75.506,10.6Z" transform="translate(-49.129 -6.958)" fill="#fff"/>
        <path id="Path_53" data-name="Path 53" d="M81.6,12.5h-.764l-.063-.438h-.024a1.314,1.314,0,0,1-1.118.524,1.158,1.158,0,0,1-.873-.344,1.074,1.074,0,0,1-.3-.773,1.178,1.178,0,0,1,.587-1.063,3.064,3.064,0,0,1,1.65-.359V9.974q0-.751-.795-.75a1.789,1.789,0,0,0-1,.281l-.173-.554a2.468,2.468,0,0,1,1.313-.328q1.5,0,1.5,1.571v1.4A5.89,5.89,0,0,0,81.6,12.5Zm-.883-1.305v-.586q-1.408-.024-1.408.765a.57.57,0,0,0,.163.446.6.6,0,0,0,.416.148.863.863,0,0,0,.52-.176.719.719,0,0,0,.295-.45A.709.709,0,0,0,80.718,11.193Z" transform="translate(-50.225 -6.958)" fill="#fff"/>
        <path id="Path_54" data-name="Path 54" d="M87.438,12.1h-.755l-.04-.61H86.62a1.273,1.273,0,0,1-1.229.7,1.444,1.444,0,0,1-1.149-.539,2.09,2.09,0,0,1-.456-1.4,2.192,2.192,0,0,1,.5-1.493,1.53,1.53,0,0,1,1.181-.532,1.15,1.15,0,0,1,1.078.516h.016V6.556h.852v4.518Q87.408,11.628,87.438,12.1Zm-.882-1.6V9.862a1.235,1.235,0,0,0-.024-.266.96.96,0,0,0-.308-.512.84.84,0,0,0-.569-.207.875.875,0,0,0-.748.375,1.6,1.6,0,0,0-.273.961,1.492,1.492,0,0,0,.261.914.878.878,0,0,0,.744.375.822.822,0,0,0,.672-.313A1.036,1.036,0,0,0,86.556,10.5Z" transform="translate(-51.227 -6.556)" fill="#fff"/>
        <path id="Path_55" data-name="Path 55" d="M96.379,10.568a2.074,2.074,0,0,1-.5,1.438,1.8,1.8,0,0,1-1.4.579,1.719,1.719,0,0,1-1.343-.555,2.013,2.013,0,0,1-.5-1.4,2.054,2.054,0,0,1,.515-1.445,1.8,1.8,0,0,1,1.39-.562,1.755,1.755,0,0,1,1.354.554A2,2,0,0,1,96.379,10.568ZM95.5,10.6a1.708,1.708,0,0,0-.228-.9.842.842,0,0,0-.764-.454.856.856,0,0,0-.78.454,1.731,1.731,0,0,0-.228.917,1.708,1.708,0,0,0,.228.9.86.86,0,0,0,.772.454.851.851,0,0,0,.764-.462A1.7,1.7,0,0,0,95.5,10.6Z" transform="translate(-52.893 -6.958)" fill="#fff"/>
        <path id="Path_56" data-name="Path 56" d="M102.105,12.5h-.85V10.322q0-1.006-.772-1.006a.767.767,0,0,0-.614.276.972.972,0,0,0-.236.651V12.5h-.852V9.785q0-.5-.03-1.087H99.5l.04.594h.024A1.236,1.236,0,0,1,100,8.834a1.449,1.449,0,0,1,.772-.214,1.225,1.225,0,0,1,.89.344,1.661,1.661,0,0,1,.441,1.259Z" transform="translate(-54.045 -6.957)" fill="#fff"/>
        <path id="Path_57" data-name="Path 57" d="M109.4,9.123h-.937v1.845c0,.469.166.7.5.7a1.509,1.509,0,0,0,.379-.039l.022.641a1.924,1.924,0,0,1-.661.094,1.021,1.021,0,0,1-.787-.3,1.482,1.482,0,0,1-.284-1.024V9.123h-.559V8.491h.559v-.7l.834-.25V8.49h.937v.633Z" transform="translate(-55.61 -6.748)" fill="#fff"/>
        <path id="Path_58" data-name="Path 58" d="M114.713,12.1h-.852V9.938q0-1.021-.77-1.022a.811.811,0,0,0-.812.592,1.054,1.054,0,0,0-.04.3V12.1h-.85V6.556h.85V8.845h.016a1.288,1.288,0,0,1,1.149-.624,1.19,1.19,0,0,1,.875.344,1.722,1.722,0,0,1,.433,1.274V12.1Z" transform="translate(-56.424 -6.556)" fill="#fff"/>
        <path id="Path_59" data-name="Path 59" d="M120.418,10.418a2.025,2.025,0,0,1-.032.383h-2.551a1.1,1.1,0,0,0,.369.86,1.274,1.274,0,0,0,.835.266,2.837,2.837,0,0,0,1.032-.18l.133.587a3.225,3.225,0,0,1-1.284.234,1.862,1.862,0,0,1-1.4-.52,1.906,1.906,0,0,1-.507-1.395,2.163,2.163,0,0,1,.472-1.43,1.632,1.632,0,0,1,1.338-.609,1.427,1.427,0,0,1,1.251.609A2.017,2.017,0,0,1,120.418,10.418Zm-.812-.218a1.13,1.13,0,0,0-.165-.649.744.744,0,0,0-.677-.352.81.81,0,0,0-.677.344,1.273,1.273,0,0,0-.252.657h1.771Z" transform="translate(-57.484 -6.956)" fill="#fff"/>
      </g>
    </g>
  </g>
</svg>
