<svg xmlns="http://www.w3.org/2000/svg" width="10.581" height="21.291" viewBox="0 0 10.581 21.291">
  <path id="Path_1793" data-name="Path 1793" d="M778.491-493.833v3.655H781.6v10.138h3.765v-10.138h3.082l.516-3.655h-3.6s-.045-2.04,0-2.552a2.011,2.011,0,0,1,.324-1.055,1.92,1.92,0,0,1,1.084-.455c.527-.012,2.295,0,2.295,0v-3.285l-1.745-.118a9.1,9.1,0,0,0-2.445.118,4.15,4.15,0,0,0-2.351,1.535,5.657,5.657,0,0,0-.926,3.5c0,1.449,0,2.316,0,2.316Z" transform="translate(-778.491 501.331)" fill="#fff"/>
</svg>
