<svg xmlns="http://www.w3.org/2000/svg" xmlns:xlink="http://www.w3.org/1999/xlink" width="49.968" height="49.968" viewBox="0 0 49.968 49.968">
  <defs>
    <filter id="Path_62" x="0" y="0" width="49.968" height="49.968" filterUnits="userSpaceOnUse">
      <feOffset dy="3" input="SourceAlpha"/>
      <feGaussianBlur stdDeviation="3" result="blur"/>
      <feFlood flood-opacity="0.161"/>
      <feComposite operator="in" in2="blur"/>
      <feComposite in="SourceGraphic"/>
    </filter>
  </defs>
  <g id="facebook" transform="translate(9 6)">
    <g transform="matrix(1, 0, 0, 1, -9, -6)" filter="url(#Path_62)">
      <path id="Path_62-2" data-name="Path 62" d="M15.984.349a16.047,16.047,0,0,0-2.666,31.861V19.748H9.462V15.264h3.856V11.958c0-3.836,2.333-5.927,5.742-5.927a31.69,31.69,0,0,1,3.443.176v4.01H20.139c-1.853,0-2.211.884-2.211,2.182v2.862h4.422l-.577,4.484H17.928V32.317A16.047,16.047,0,0,0,15.984.349Z" transform="translate(9 5.65)" fill="#406eac"/>
    </g>
  </g>
</svg>
