<svg id="Google" xmlns="http://www.w3.org/2000/svg" width="20.504" height="20.795" viewBox="0 0 20.504 20.795">
  <path id="Path_272" data-name="Path 272" d="M82.045,61.114A12.315,12.315,0,0,0,81.865,59H72v4h5.65a4.811,4.811,0,0,1-2.089,3.16v2.6h3.372A10.137,10.137,0,0,0,82.045,61.114Z" transform="translate(-61.54 -50.48)" fill="#4285f4"/>
  <path id="Path_273" data-name="Path 273" d="M17.016,94.187a10.047,10.047,0,0,0,6.933-2.51l-3.372-2.6a6.362,6.362,0,0,1-9.433-3.3H7.67v2.679a10.467,10.467,0,0,0,9.346,5.728Z" transform="translate(-6.556 -73.392)" fill="#34a853"/>
  <path id="Path_274" data-name="Path 274" d="M4.591,46.328a6.194,6.194,0,0,1,0-3.98V39.67H1.117a10.341,10.341,0,0,0,0,9.337Z" transform="translate(-0.003 -33.941)" fill="#fbbc04"/>
  <path id="Path_275" data-name="Path 275" d="M17.017,4.111a5.7,5.7,0,0,1,4.013,1.56h0L24.015,2.7a10.084,10.084,0,0,0-7-2.708A10.467,10.467,0,0,0,7.671,5.724L11.145,8.4A6.252,6.252,0,0,1,17.017,4.111Z" transform="translate(-6.557 0.005)" fill="#ea4335"/>
</svg>
