<svg id="Group_166" data-name="Group 166" xmlns="http://www.w3.org/2000/svg" width="187.452" height="32.872" viewBox="0 0 187.452 32.872">
  <path id="Path_74" data-name="Path 74" d="M195.763,48.869V42.022a4.07,4.07,0,0,0-4.3-4.345,4.231,4.231,0,0,0-3.839,1.945,4.012,4.012,0,0,0-3.611-1.945,3.615,3.615,0,0,0-3.2,1.625V37.932H178.44V48.869h2.4V42.812c0-1.9,1.05-2.9,2.675-2.9s2.378,1.027,2.378,2.88v6.08h2.387V42.812a2.575,2.575,0,0,1,2.675-2.9c1.579,0,2.4,1.027,2.4,2.88v6.08Zm35.526-10.928H227.4V34.627H225v3.314h-2.218v2.173H225v4.98c0,2.538.981,4.049,3.793,4.049a5.587,5.587,0,0,0,2.972-.844l-.685-2.036a4.391,4.391,0,0,1-2.1.616c-1.187,0-1.579-.73-1.579-1.826V40.114h3.884Zm20.28-.274a3.223,3.223,0,0,0-2.88,1.6V37.941h-2.355V48.869h2.378V42.743c0-1.826.776-2.812,2.332-2.812a3.875,3.875,0,0,1,1.488.274l.73-2.241a5.081,5.081,0,0,0-1.693-.3Zm-30.66,1.141a8.17,8.17,0,0,0-4.46-1.141c-2.766,0-4.565,1.328-4.565,3.5,0,1.785,1.324,2.88,3.77,3.223l1.118.16c1.3.183,1.922.525,1.922,1.141,0,.844-.867,1.328-2.492,1.328a5.824,5.824,0,0,1-3.652-1.141l-1.082,1.849a7.883,7.883,0,0,0,4.733,1.42c3.154,0,4.984-1.488,4.984-3.565,0-1.922-1.442-2.926-3.816-3.268l-1.118-.16c-1.027-.137-1.853-.342-1.853-1.073,0-.8.776-1.278,2.081-1.278a7.043,7.043,0,0,1,3.405.936Zm63.685-1.141a3.223,3.223,0,0,0-2.88,1.6V37.941h-2.355V48.869h2.378V42.743c0-1.826.776-2.812,2.332-2.812a3.875,3.875,0,0,1,1.488.274l.73-2.241a5.081,5.081,0,0,0-1.693-.3ZM253.97,43.4a5.521,5.521,0,0,0,5.829,5.738,5.724,5.724,0,0,0,3.93-1.305l-1.141-1.922a4.8,4.8,0,0,1-2.857.981,3.25,3.25,0,0,1-3.291-3.5,3.265,3.265,0,0,1,3.291-3.5,4.8,4.8,0,0,1,2.857.981l1.141-1.922a5.724,5.724,0,0,0-3.93-1.305A5.521,5.521,0,0,0,253.97,43.4Zm22.266,0V37.927h-2.378v1.328a4.145,4.145,0,0,0-3.451-1.6,5.486,5.486,0,0,0-5.478,5.738,5.478,5.478,0,0,0,5.478,5.738,4.145,4.145,0,0,0,3.451-1.6V48.85h2.378Zm-8.846,0a3.308,3.308,0,1,1,6.6,0,3.308,3.308,0,1,1-6.6,0ZM238.7,37.667c-3.2,0-5.441,2.333-5.441,5.738a5.39,5.39,0,0,0,5.6,5.738,6.641,6.641,0,0,0,4.482-1.534l-1.164-1.762a5.208,5.208,0,0,1-3.2,1.141,3.032,3.032,0,0,1-3.268-2.675h8.116c.023-.3.046-.593.046-.913,0-3.405-2.127-5.738-5.19-5.738Zm-.046,2.127a2.712,2.712,0,0,1,2.766,2.652h-5.665a2.811,2.811,0,0,1,2.9-2.652ZM298.288,43.4V33.55h-2.378v5.715a4.145,4.145,0,0,0-3.451-1.6,5.486,5.486,0,0,0-5.477,5.738,5.478,5.478,0,0,0,5.477,5.738,4.145,4.145,0,0,0,3.451-1.6V48.86h2.378Zm2.78,4.455a.7.7,0,0,1,.274.055.717.717,0,0,1,.224.151.7.7,0,0,1,.151.219.68.68,0,0,1,0,.539.7.7,0,0,1-.151.219.73.73,0,0,1-.224.151.684.684,0,0,1-.274.055.707.707,0,0,1-.657-.424.685.685,0,0,1,0-.539.694.694,0,0,1,.374-.37.717.717,0,0,1,.292-.055Zm0,1.232a.516.516,0,0,0,.21-.041.552.552,0,0,0,.169-.114.541.541,0,0,0-.169-.881.525.525,0,0,0-.21-.041.539.539,0,1,0,.009,1.077Zm.041-.867a.292.292,0,0,1,.192.055.183.183,0,0,1,.068.151.173.173,0,0,1-.055.132.255.255,0,0,1-.151.064l.21.242h-.164l-.2-.242h-.064v.242h-.137V48.23Zm-.16.119v.173h.16a.155.155,0,0,0,.087,0,.08.08,0,0,0,0-.128.155.155,0,0,0-.087,0Zm-11.5-4.939a3.308,3.308,0,1,1,6.6,0,3.308,3.308,0,1,1-6.6,0Zm-80.291,0V37.927h-2.378v1.328a4.145,4.145,0,0,0-3.437-1.588,5.486,5.486,0,0,0-5.478,5.738,5.478,5.478,0,0,0,5.478,5.738,4.145,4.145,0,0,0,3.451-1.6v1.324h2.378Zm-8.846,0a3.308,3.308,0,1,1,6.6,0,3.308,3.308,0,1,1-6.6,0Z" transform="translate(-114.319 -26.904)" fill="#231f20"/>
  <g id="_Group_" data-name="&lt;Group&gt;">
    <rect id="Rectangle_80" data-name="Rectangle 80" width="14.378" height="25.84" transform="translate(19.397 3.51)" fill="#ff5f00"/>
    <path id="_Path_" data-name="&lt;Path&gt;" d="M58.275,35.435a16.405,16.405,0,0,1,6.276-12.918,16.432,16.432,0,1,0,0,25.84A16.405,16.405,0,0,1,58.275,35.435Z" transform="translate(-37.965 -18.998)" fill="#eb001b"/>
    <path id="Path_72" data-name="Path 72" d="M122.8,35.427A16.432,16.432,0,0,1,96.21,48.345a16.432,16.432,0,0,0,0-25.84A16.432,16.432,0,0,1,122.8,35.427Z" transform="translate(-69.624 -18.991)" fill="#f79e1b"/>
    <path id="Path_73" data-name="Path 73" d="M150.62,76.529V76h.215v-.1H150.3V76h.215v.529Zm1.054,0V75.89h-.142l-.192.456-.192-.456h-.169v.639h.1V76.05l.178.415h.123l.178-.415v.484Z" transform="translate(-99.024 -49.918)" fill="#f79e1b"/>
  </g>
</svg>
