<svg id="Group_167" data-name="Group 167" xmlns="http://www.w3.org/2000/svg" width="44.483" height="34.598" viewBox="0 0 44.483 34.598">
  <path id="Path_75" data-name="Path 75" d="M26.979,96.977V94.686a1.359,1.359,0,0,0-1.436-1.451,1.413,1.413,0,0,0-1.283.649,1.34,1.34,0,0,0-1.207-.649,1.207,1.207,0,0,0-1.069.542v-.451H21.19v3.65h.8V94.968a.855.855,0,0,1,.894-.97c.527,0,.794.344.794.962v2.031h.8V94.968a.859.859,0,0,1,.894-.97c.542,0,.8.344.8.962v2.031Zm11.864-3.65H37.537V92.219h-.8v1.107h-.726v.726h.741v1.68c0,.848.328,1.352,1.268,1.352a1.864,1.864,0,0,0,.993-.283l-.229-.68a1.466,1.466,0,0,1-.7.206c-.382,0-.527-.244-.527-.611V94.052h1.3Zm6.774-.092a1.077,1.077,0,0,0-.962.535v-.443h-.787v3.65h.794V94.93c0-.6.26-.939.764-.939a1.294,1.294,0,0,1,.5.092l.244-.764a1.7,1.7,0,0,0-.565-.1Zm-10.241.382a2.73,2.73,0,0,0-1.489-.382c-.924,0-1.527.443-1.527,1.168,0,.6.443.962,1.26,1.077l.382.053c.435.061.641.176.641.382,0,.283-.29.443-.832.443a1.944,1.944,0,0,1-1.214-.382l-.382.619a2.635,2.635,0,0,0,1.581.473c1.054,0,1.665-.5,1.665-1.191s-.481-.978-1.275-1.092l-.382-.053c-.344-.046-.619-.115-.619-.359s.26-.428.695-.428a2.352,2.352,0,0,1,1.146.313Zm21.272-.382a1.077,1.077,0,0,0-.962.535v-.443H54.9v3.65h.794V94.93c0-.6.26-.939.764-.939a1.294,1.294,0,0,1,.5.092l.244-.764a1.7,1.7,0,0,0-.565-.1ZM46.415,95.144a1.844,1.844,0,0,0,1.947,1.909,1.909,1.909,0,0,0,1.314-.435l-.382-.641a1.6,1.6,0,0,1-.955.328,1.172,1.172,0,0,1,0-2.337,1.6,1.6,0,0,1,.955.328l.382-.642a1.909,1.909,0,0,0-1.314-.435,1.844,1.844,0,0,0-1.947,1.909Zm7.438,0V93.326h-.794v.443a1.386,1.386,0,0,0-1.146-.535,1.909,1.909,0,0,0,0,3.818,1.386,1.386,0,0,0,1.146-.535v.443h.794Zm-2.955,0a1.1,1.1,0,1,1,.3.826A1.1,1.1,0,0,1,50.9,95.144Zm-9.584-1.909a1.909,1.909,0,1,0,.053,3.818,2.218,2.218,0,0,0,1.516-.5l-.382-.588a1.738,1.738,0,0,1-1.062.382,1.012,1.012,0,0,1-1.092-.894h2.711v-.305a1.735,1.735,0,0,0-1.734-1.909Zm0,.71a.9.9,0,0,1,.924.886H40.328a.939.939,0,0,1,.97-.886Zm19.9,1.207V91.86h-.764v1.909a1.386,1.386,0,0,0-1.146-.535,1.909,1.909,0,0,0,0,3.818,1.386,1.386,0,0,0,1.146-.535v.443h.764Zm1.325,1.294a.367.367,0,0,1,.344.218.355.355,0,0,1,0,.283.365.365,0,0,1-.2.191.359.359,0,0,1-.145.031.382.382,0,0,1-.344-.221.359.359,0,0,1,0-.283.371.371,0,0,1,.355-.218Zm0,.645a.271.271,0,0,0,.111-.023.286.286,0,0,0,.088-.061.275.275,0,0,0-.088-.443.275.275,0,0,0-.111-.023.286.286,0,0,0-.111.023.279.279,0,0,0-.092.061.277.277,0,0,0,.214.466Zm.023-.454a.153.153,0,0,1,.1.031.1.1,0,0,1,.034.08.092.092,0,0,1-.027.069.134.134,0,0,1-.08.034l.111.126h-.088l-.1-.126h-.034v.126H62.4v-.336Zm-.084.065v.092h.084a.08.08,0,0,0,.046,0,154.736,154.736,0,0,1,0-.069.08.08,0,0,0-.046,0Zm-4.2-1.55a1.1,1.1,0,1,1,.3.826A1.1,1.1,0,0,1,58.275,95.151Zm-26.817,0V93.326h-.794v.443a1.386,1.386,0,0,0-1.146-.535,1.909,1.909,0,0,0,0,3.818,1.386,1.386,0,0,0,1.146-.535v.443h.794Zm-2.955,0a.468.468,0,1,1-.008,0Z" transform="translate(-18.886 -62.569)" fill="#231f20"/>
  <g id="_Group_" data-name="&lt;Group&gt;">
    <rect id="Rectangle_82" data-name="Rectangle 82" width="12.028" height="21.616" transform="translate(16.226 2.94)" fill="#ff5f00"/>
    <path id="_Path_" data-name="&lt;Path&gt;" d="M32.145,28.9a13.723,13.723,0,0,1,5.25-10.81,13.746,13.746,0,1,0,0,21.616A13.723,13.723,0,0,1,32.145,28.9Z" transform="translate(-15.155 -15.153)" fill="#eb001b"/>
    <path id="Path_76" data-name="Path 76" d="M95.642,28.9A13.746,13.746,0,0,1,73.4,39.707a13.746,13.746,0,0,0,0-21.616A13.746,13.746,0,0,1,95.642,28.9Z" transform="translate(-51.16 -15.151)" fill="#f79e1b"/>
    <path id="Path_77" data-name="Path 77" d="M127.765,72.595v-.443h.179V72.06h-.454v.092h.195v.443Zm.882,0V72.06h-.137l-.16.382-.16-.382h-.122v.535h.1v-.4l.149.347h.1l.149-.347v.4Z" transform="translate(-84.596 -50.33)" fill="#f79e1b"/>
  </g>
</svg>
