<svg id="XMLID_1_" xmlns="http://www.w3.org/2000/svg" width="105.517" height="34.277" viewBox="0 0 105.517 34.277">
  <path id="XMLID_2_" d="M70.535,256.274a1.74,1.74,0,0,0-1.127-.318H67.5v1.127h1.474c.434.058.376.058.434.2h0c-.087.2-.578.578-.578,1.185v7.748h1.619v-7.574c-.058-.434.52-.665.578-1.417A1.533,1.533,0,0,0,70.535,256.274Zm24.89,6.707-1.677-4.857h-1.33l-1.677,4.857-1.272-4.857h-1.59l2.139,8.065h1.243l1.85-5.377,1.792,5.377h1.243l2.2-8.065H96.727Zm7.979-4.076a3.138,3.138,0,0,0-2.37-.9,3.879,3.879,0,0,0-1.908.434l-.087.058-.058.058v1.706l.347-.2a2.834,2.834,0,0,1,1.619-.52,1.534,1.534,0,0,1,1.243.463,1.889,1.889,0,0,1,.434,1.33v4.886h1.561v-5.233A2.789,2.789,0,0,0,103.4,258.905Zm-25.555-.145a3.432,3.432,0,0,0-1.012-.578,3.831,3.831,0,0,0-3.469.52v-.578H71.807v8.065h1.561v-5.232a1.2,1.2,0,0,1,.665-1.041,2.349,2.349,0,0,1,1.474-.463,1.713,1.713,0,0,1,1.243.434,1.416,1.416,0,0,1,.434,1.1v5.233h1.561v-5.377a2.986,2.986,0,0,0-.231-1.185A3.133,3.133,0,0,0,77.849,258.76Zm9.135-.607H85.423v6.187a3.269,3.269,0,0,1-1.85.52,3.04,3.04,0,0,1-1.619-.376,1,1,0,0,1-.52-.954.735.735,0,0,1,.145-.463,2.516,2.516,0,0,1,.376-.434c.145-.087.347-.2.52-.289a2.056,2.056,0,0,1,.607-.087h1.041v-1.474H82.937c-1.012,0-1.272-.231-1.272-.607s.231-.578,1.041-.578a1.459,1.459,0,0,1,.434.058c.2.058.463.087.752.145l.087.058.145.058v-1.474l-.145-.058a4.29,4.29,0,0,0-1.33-.231,3.935,3.935,0,0,0-1.041.144,2.715,2.715,0,0,0-.867.434,2.138,2.138,0,0,0-.578.665,1.9,1.9,0,0,0-.2.867,1.467,1.467,0,0,0,.434,1.041,1.44,1.44,0,0,0,.52.434,1.917,1.917,0,0,0-.607.578,2.183,2.183,0,0,0-.52,1.388A2.519,2.519,0,0,0,80.8,265.7a4.16,4.16,0,0,0,2.8.809,4.316,4.316,0,0,0,3.382-1.33v-.058h.058v-7h-.058Zm23.879-2.717v1.272h6.36v-1.417h-6.36Zm20.525,8.875a3.268,3.268,0,0,1-1.85.52,3.04,3.04,0,0,1-1.619-.376,1.171,1.171,0,0,1-.578-.954.735.735,0,0,1,.145-.463,2.513,2.513,0,0,1,.376-.434c.145-.087.347-.2.52-.289a2.052,2.052,0,0,1,.607-.087h1.041v-1.474h-1.185c-1.012,0-1.272-.231-1.272-.607s.231-.578,1.041-.578a1.46,1.46,0,0,1,.434.058c.2.058.434.087.752.145l.087.058.145.058v-1.474l-.145-.058a4.291,4.291,0,0,0-1.33-.231,3.935,3.935,0,0,0-1.041.145,2.448,2.448,0,0,0-.867.434,2.137,2.137,0,0,0-.578.665,1.9,1.9,0,0,0-.2.867,1.518,1.518,0,0,0,.434,1.041,1.441,1.441,0,0,0,.52.434,1.916,1.916,0,0,0-.607.578,2.126,2.126,0,0,0-.52,1.388,2.439,2.439,0,0,0,1.012,1.995,4.16,4.16,0,0,0,2.8.809,4.317,4.317,0,0,0,3.382-1.33l.058-.087v-6.851h-1.561Zm.578-9.511a1.3,1.3,0,0,0-1.041.347,1.346,1.346,0,0,0-.289.954v.52H132.2v-.376c.058-.231,0-.231.376-.289h.752v-1.127h-1.359Zm-16.3,8.557a1.258,1.258,0,0,1-.578,1.041,2.019,2.019,0,0,1-1.33.463,1.6,1.6,0,0,1-1.127-.376,1.306,1.306,0,0,1-.376-1.012v-2.717a2.472,2.472,0,0,0-1.041-2.081,3.913,3.913,0,0,0-2.428-.723,3.873,3.873,0,0,0-3.411,1.763v6.476h2.717v-1.474H106.96v-4.452a2.289,2.289,0,0,1,1.908-.752,2.465,2.465,0,0,1,1.388.376,1.2,1.2,0,0,1,.52,1.1v2.573a2.859,2.859,0,0,0,.809,2.052,3.016,3.016,0,0,0,2.2.809,3.31,3.31,0,0,0,1.995-.665v.463h1.561v-8.065H115.72v5.2Zm7.661-3.411,1.388-1.243-1.33-.723-3.006,2.573.434.087c1.937.347,2.746,1.1,2.746,2.371a1.583,1.583,0,0,1-.607,1.33,2.927,2.927,0,0,1-1.706.578h-.2a1.127,1.127,0,0,1-.463-.058,3.252,3.252,0,0,0-.52-.087v-6.649h-1.532v7.719l.145.058a7.323,7.323,0,0,0,2.515.462h.087a4.458,4.458,0,0,0,2.891-.954,3.016,3.016,0,0,0,1.012-2.371v-.058A3.3,3.3,0,0,0,123.323,259.946Z" transform="translate(-67.5 -235.787)" fill="#4b2885"/>
  <rect id="XMLID_13_" width="33.65" height="34.277" transform="translate(71.867)" fill="#4b2885"/>
  <path id="XMLID_14_" d="M355.5,228.844l-3.556-14.463-9.4-8.882-9.4,8.882L329.6,228.844l6.736,3.3h5.319v-4.921s-9.887,5.431-7.314-6.721c.867-4.051,5.406-9.362,7.979-10.892.087-.06.145-.09.231-.15,2.573,1.29,7.372,6.841,8.21,10.982,2.6,12.182-7.256,6.751-7.256,6.751v4.921h5.29Z" transform="translate(-253.83 -201.713)" fill="#fcaf17"/>
  <path id="XMLID_15_" d="M204.9,211.8l.289-1.677a10.157,10.157,0,0,0-3.238-.52c-1.85,0-4.134.52-4.134,3.122,0,2.342,2.66,2.717,3.267,2.891.607.145,2.457.52,2.457,1.532s-1.388,1.33-2.226,1.33a7.613,7.613,0,0,1-3.325-.9l-.289,1.763a7.746,7.746,0,0,0,3.556.809c2.139,0,4.221-.9,4.221-3.035,0-1.995-1.185-2.717-3.093-3.122-2.2-.52-2.6-.867-2.6-1.417,0-.607.607-1.185,2.226-1.185A9.822,9.822,0,0,1,204.9,211.8Z" transform="translate(-160.061 -204.628)" fill="#4b2885"/>
  <path id="XMLID_16_" d="M237.808,211.626l.231-1.706a8.173,8.173,0,0,0-2.862-.52c-1.677,0-5.377.347-5.377,5.377,0,5,3.787,5.261,5.261,5.261a9.475,9.475,0,0,0,3.006-.607l-.231-1.677a6.768,6.768,0,0,1-2.515.463c-1.417,0-3.238-.231-3.238-3.527,0-3.324,1.792-3.527,3.267-3.527A12.224,12.224,0,0,1,237.808,211.626Z" transform="translate(-182.881 -204.486)" fill="#4b2885"/>
  <path id="XMLID_17_" d="M272.136,214.886V214.8s1.532-.2,1.532-2.226c0-2.081-1.937-2.573-3.671-2.573h-4.6v10.263h4.857c2.284,0,3.932-.752,3.932-2.891A2.5,2.5,0,0,0,272.136,214.886Zm-4.741-3.18h2.717c.9,0,1.619.289,1.619,1.272,0,.9-.463,1.272-1.619,1.272h-2.717Zm2.891,6.851h-2.891v-2.8H270.4c.723,0,1.706.145,1.706,1.33C272.049,218.412,271.24,218.557,270.286,218.557Z" transform="translate(-208.19 -204.697)" fill="#4b2885"/>
</svg>
