<svg id="g4158" xmlns="http://www.w3.org/2000/svg" width="80.572" height="26.076" viewBox="0 0 80.572 26.076">
  <path id="polygon9" d="M440.034,135.969h-6.527l4.082-25.242h6.527Z" transform="translate(-405.12 -110.269)" fill="#00579f"/>
  <path id="path11" d="M584.758,106.122a16.084,16.084,0,0,0-5.854-1.075c-6.445,0-10.984,3.437-11.012,8.351-.054,3.626,3.25,5.639,5.72,6.848,2.525,1.235,3.383,2.042,3.383,3.143-.026,1.691-2.04,2.471-3.92,2.471a12.99,12.99,0,0,1-6.124-1.343l-.859-.4-.913,5.666a19.864,19.864,0,0,0,7.279,1.343c6.848,0,11.307-3.384,11.36-8.621.026-2.874-1.718-5.075-5.479-6.875-2.283-1.155-3.681-1.934-3.681-3.116.027-1.074,1.182-2.175,3.759-2.175a11.09,11.09,0,0,1,4.862.967l.59.268.888-5.451Z" transform="translate(-526.183 -105.048)" fill="#00579f"/>
  <path id="path13" d="M800.62,127.027c.538-1.45,2.606-7.063,2.606-7.063-.027.054.536-1.477.859-2.417l.456,2.175s1.236,6.042,1.5,7.3Zm8.057-16.3h-5.049a3.221,3.221,0,0,0-3.411,2.094l-9.695,23.148h6.849s1.128-3.116,1.37-3.787h8.38c.187.886.779,3.787.779,3.787h6.043l-5.265-25.242h0Z" transform="translate(-733.37 -110.269)" fill="#00579f"/>
  <path id="path15" d="M181.95,110.727l-6.392,17.213-.7-3.491a19.321,19.321,0,0,0-9.024-10.581l5.855,22.074h6.9l10.259-25.216Z" transform="translate(-159.014 -110.269)" fill="#00579f"/>
  <path id="path17" d="M91.774,110.727h-10.5l-.107.51c8.192,2.095,13.617,7.144,15.846,13.213l-2.283-11.6c-.376-1.612-1.531-2.069-2.954-2.122Z" transform="translate(-81.166 -110.269)" fill="#faa61a"/>
</svg>
