<svg id="paypal" xmlns="http://www.w3.org/2000/svg" width="108.584" height="27.749" viewBox="0 0 108.584 27.749">
  <path id="Path_146" data-name="Path 146" d="M356.335,221.2h-5.86a1.145,1.145,0,0,0-.862.689L347.2,237.057a.457.457,0,0,0,.517.517h3.1a.457.457,0,0,0,.517-.517l.689-4.309a.789.789,0,0,1,.862-.689h1.9q5.946,0,6.722-5.688a4.518,4.518,0,0,0-.689-3.792,6.952,6.952,0,0,0-4.481-1.379m.689,5.688c-.345,2.068-1.9,2.068-3.447,2.068h-1.034l.689-3.964c0-.172.172-.345.517-.345h.345c1.034,0,2.068,0,2.585.689.345.172.345.689.345,1.551" transform="translate(-272.398 -213.961)" fill="#139ad6"/>
  <g id="Group_169" data-name="Group 169" transform="translate(32.575 7.239)">
    <path id="Path_147" data-name="Path 147" d="M160.335,221.2h-5.86a1.145,1.145,0,0,0-.862.689L151.2,237.057a.457.457,0,0,0,.517.517h2.758a1.145,1.145,0,0,0,.862-.689l.689-4.137a.789.789,0,0,1,.862-.689h1.9q5.946,0,6.722-5.688a4.518,4.518,0,0,0-.689-3.792,6.625,6.625,0,0,0-4.481-1.379m.689,5.688c-.345,2.068-1.9,2.068-3.447,2.068h-.862l.689-3.964c0-.172.172-.345.517-.345h.345c1.034,0,2.068,0,2.585.689a1.846,1.846,0,0,1,.172,1.551" transform="translate(-151.2 -221.2)" fill="#263b80"/>
    <path id="Path_148" data-name="Path 148" d="M227.278,245.545H224.52c-.172,0-.517.172-.517.345l-.172.862-.172-.345a4.054,4.054,0,0,0-3.275-1.206,6.623,6.623,0,0,0-6.377,5.688,5.137,5.137,0,0,0,1.034,4.309,4.343,4.343,0,0,0,3.619,1.379,5.509,5.509,0,0,0,3.964-1.551l-.172.862a.457.457,0,0,0,.517.517h2.585a1.145,1.145,0,0,0,.862-.689l1.551-9.652c-.172-.172-.517-.517-.689-.517m-3.964,5.515a3.334,3.334,0,0,1-3.275,2.758,2.756,2.756,0,0,1-1.9-.689,3.676,3.676,0,0,1-.517-2.068,3.074,3.074,0,0,1,5-2.068,3.009,3.009,0,0,1,.689,2.068" transform="translate(-200.391 -240.029)" fill="#263b80"/>
  </g>
  <path id="Path_149" data-name="Path 149" d="M422.478,245.545H419.72c-.172,0-.517.172-.517.345l-.172.862-.172-.345a4.054,4.054,0,0,0-3.275-1.206,6.623,6.623,0,0,0-6.377,5.688,5.137,5.137,0,0,0,1.034,4.309,4.343,4.343,0,0,0,3.619,1.379,5.509,5.509,0,0,0,3.964-1.551l-.172.862a.457.457,0,0,0,.517.517h2.585a1.145,1.145,0,0,0,.862-.689l1.551-9.652c-.172-.172-.345-.517-.689-.517m-3.964,5.515a3.334,3.334,0,0,1-3.275,2.758,2.757,2.757,0,0,1-1.9-.689,3.676,3.676,0,0,1-.517-2.068,3.074,3.074,0,0,1,5-2.068,1.978,1.978,0,0,1,.689,2.068" transform="translate(-320.961 -232.79)" fill="#139ad6"/>
  <path id="Path_150" data-name="Path 150" d="M297.271,246.8h-2.93a.9.9,0,0,0-.689.345L289.86,253l-1.724-5.515a.8.8,0,0,0-.862-.517h-2.758c-.345,0-.517.345-.517.689l3.1,9.135-2.93,4.137c-.172.345,0,.862.345.862h2.758a.9.9,0,0,0,.689-.345l9.48-13.616c.517-.517.172-1.034-.172-1.034" transform="translate(-222.814 -234.046)" fill="#263b80"/>
  <path id="Path_151" data-name="Path 151" d="M477.613,222.1,475.2,237.61a.457.457,0,0,0,.517.517h2.413a1.145,1.145,0,0,0,.862-.689l2.413-15.167a.457.457,0,0,0-.517-.517H478.13c-.172-.172-.345,0-.517.345" transform="translate(-372.821 -214.343)" fill="#139ad6"/>
  <path id="Path_152" data-name="Path 152" d="M19.821,189.668c-1.206-1.379-3.447-2.068-6.549-2.068H4.654a1.479,1.479,0,0,0-1.206,1.034L0,211.213a.789.789,0,0,0,.689.862H6.032l1.379-8.445v.345a1.479,1.479,0,0,1,1.206-1.034H11.2c5,0,8.79-2.068,10-7.756v-.517h0c.172-2.241-.172-3.619-1.379-5" transform="translate(0 -187.6)" fill="#263b80"/>
  <path id="Path_153" data-name="Path 153" d="M41.112,220.4h0v.517c-1.206,5.86-5,7.756-10,7.756H28.53a1.479,1.479,0,0,0-1.206,1.034L25.6,240.221a.631.631,0,0,0,.689.689h4.481a.965.965,0,0,0,1.034-.862v-.172l.862-5.343v-.345a.965.965,0,0,1,1.034-.862h.689c4.309,0,7.756-1.724,8.618-6.894.345-2.068.172-3.964-.862-5.171a1.765,1.765,0,0,0-1.034-.862" transform="translate(-20.085 -213.333)" fill="#139ad6"/>
  <path id="Path_154" data-name="Path 154" d="M46.81,216.117c-.172,0-.345-.172-.517-.172a.633.633,0,0,1-.517-.172,9.106,9.106,0,0,0-2.241-.172H36.813a.633.633,0,0,0-.517.172.948.948,0,0,0-.517.862L34.4,225.6v.345a1.479,1.479,0,0,1,1.206-1.034h2.585c5,0,8.79-2.068,10-7.756a.633.633,0,0,1,.172-.517c-.345-.172-.517-.345-.862-.345-.517-.172-.517-.172-.689-.172" transform="translate(-26.989 -209.568)" fill="#232c65"/>
</svg>
