<svg id="Group_168" data-name="Group 168" xmlns="http://www.w3.org/2000/svg" width="147" height="36.725" viewBox="0 0 147 36.725">
  <rect id="Rectangle_83" data-name="Rectangle 83" width="101.827" height="1.421" transform="translate(0 18.5)" fill="#ed1c2e"/>
  <path id="Path_78" data-name="Path 78" d="M619.048,93.321a16.94,16.94,0,1,1-16.941-16.936,16.938,16.938,0,0,1,16.941,16.936" transform="translate(-473.354 -74.844)" fill="#fff"/>
  <path id="Path_79" data-name="Path 79" d="M626.137,181.984a5.816,5.816,0,0,0-2.851-.814,6.594,6.594,0,0,0-2.837.8,6.916,6.916,0,0,1-3.049.84,6.285,6.285,0,0,1-2.771-.783,6.941,6.941,0,0,0-3.07-.848,6.767,6.767,0,0,0-2.84.784,7.07,7.07,0,0,1-3.062.825l-.193,0c.124.154.252.309.389.463a7.7,7.7,0,0,0,3.056-.862,6.311,6.311,0,0,1,2.65-.742,6.441,6.441,0,0,1,2.873.8,6.721,6.721,0,0,0,2.968.826,7.246,7.246,0,0,0,3.244-.883,6.18,6.18,0,0,1,2.643-.753,5.377,5.377,0,0,1,2.642.761,6.332,6.332,0,0,0,3.156.877c.139-.153.276-.314.4-.475-.12.009-.248.013-.376.013a5.955,5.955,0,0,1-2.972-.827" transform="translate(-488.844 -154.815)" fill="#99877d"/>
  <path id="Path_80" data-name="Path 80" d="M625.672,185.186a6.6,6.6,0,0,0-2.837.8,6.911,6.911,0,0,1-3.05.838,6.305,6.305,0,0,1-2.77-.779,6.89,6.89,0,0,0-3.071-.845,6.7,6.7,0,0,0-2.839.784,7.974,7.974,0,0,1-2.515.794c.128.139.26.277.4.416a9.053,9.053,0,0,0,2.307-.788,6.256,6.256,0,0,1,2.65-.745,6.439,6.439,0,0,1,2.873.8,6.729,6.729,0,0,0,2.968.826,7.333,7.333,0,0,0,3.246-.881,6.084,6.084,0,0,1,2.641-.755,5.372,5.372,0,0,1,2.642.761,6.882,6.882,0,0,0,2.381.828c.141-.141.278-.283.415-.426a6.213,6.213,0,0,1-2.586-.814,5.817,5.817,0,0,0-2.852-.814" transform="translate(-491.23 -157.88)" fill="#99877d"/>
  <path id="Path_81" data-name="Path 81" d="M628.07,188.89a6.57,6.57,0,0,0-2.838.8,6.94,6.94,0,0,1-3.049.838,6.252,6.252,0,0,1-2.77-.783,6.948,6.948,0,0,0-3.071-.845,6.674,6.674,0,0,0-2.839.784,10.183,10.183,0,0,1-1.771.666c.137.125.267.247.406.368a12.545,12.545,0,0,0,1.554-.614,6.285,6.285,0,0,1,2.65-.743,6.465,6.465,0,0,1,2.873.8,6.757,6.757,0,0,0,2.968.824,7.307,7.307,0,0,0,3.246-.879,6.128,6.128,0,0,1,2.641-.755,5.374,5.374,0,0,1,2.642.761,8.4,8.4,0,0,0,1.6.671c.142-.123.281-.246.418-.375a7.308,7.308,0,0,1-1.807-.709,5.838,5.838,0,0,0-2.851-.812" transform="translate(-493.628 -160.707)" fill="#99877d"/>
  <path id="Path_82" data-name="Path 82" d="M630.443,192.593a6.57,6.57,0,0,0-2.837.8,6.938,6.938,0,0,1-3.05.834,6.277,6.277,0,0,1-2.77-.779,6.918,6.918,0,0,0-3.071-.847,6.7,6.7,0,0,0-2.839.784c-.337.152-.677.308-1.035.436.139.115.279.227.422.334.273-.109.543-.227.8-.349a6.284,6.284,0,0,1,2.65-.742,6.411,6.411,0,0,1,2.873.8,6.729,6.729,0,0,0,2.968.826,7.333,7.333,0,0,0,3.246-.881,6.118,6.118,0,0,1,2.641-.757,5.33,5.33,0,0,1,2.642.763c.271.137.545.276.839.4.145-.108.287-.216.427-.33a10.825,10.825,0,0,1-1.056-.484,5.817,5.817,0,0,0-2.852-.812" transform="translate(-496.002 -163.533)" fill="#99877d"/>
  <path id="Path_83" data-name="Path 83" d="M632.828,196.3a6.566,6.566,0,0,0-2.838.795,6.915,6.915,0,0,1-3.05.842,6.283,6.283,0,0,1-2.77-.785,6.917,6.917,0,0,0-3.071-.845,6.7,6.7,0,0,0-2.839.782c-.1.046-.2.09-.3.132.143.105.291.211.437.312a.343.343,0,0,0,.046-.022,6.271,6.271,0,0,1,2.65-.742,6.437,6.437,0,0,1,2.873.8,6.7,6.7,0,0,0,2.968.824,7.362,7.362,0,0,0,3.246-.876,6.085,6.085,0,0,1,2.641-.757,5.317,5.317,0,0,1,2.641.763c.036.016.068.033.105.051.141-.1.285-.2.431-.3-.109-.053-.219-.109-.326-.164a5.839,5.839,0,0,0-2.851-.81" transform="translate(-498.386 -166.36)" fill="#99877d"/>
  <path id="Path_84" data-name="Path 84" d="M632.494,200.783a6.911,6.911,0,0,1-3.05.837,6.243,6.243,0,0,1-2.77-.782,6.924,6.924,0,0,0-3.071-.845,5.836,5.836,0,0,0-2.357.57c.164.1.323.2.488.3a4.917,4.917,0,0,1,1.869-.406,6.451,6.451,0,0,1,2.873.8,6.67,6.67,0,0,0,2.968.827,7.307,7.307,0,0,0,3.245-.881,6.128,6.128,0,0,1,2.641-.755,4.583,4.583,0,0,1,1.953.431c.16-.093.32-.192.476-.289a5.264,5.264,0,0,0-2.429-.605,6.568,6.568,0,0,0-2.837.8" transform="translate(-500.889 -169.173)" fill="#99877d"/>
  <path id="Path_85" data-name="Path 85" d="M597.019,69.876a18.362,18.362,0,1,0,18.366,18.361,18.36,18.36,0,0,0-18.366-18.361m0,33.8a15.433,15.433,0,1,1,15.433-15.436,15.435,15.435,0,0,1-15.433,15.436" transform="translate(-468.385 -69.876)" fill="#ed1c2e"/>
  <path id="Path_86" data-name="Path 86" d="M667.559,128.075a2.978,2.978,0,0,1-1,1.43c-.711.578-5.408,3.482-5.938,4.156a3.953,3.953,0,0,0-.621,2.413v5.583h.712v-1.453a2.966,2.966,0,0,1,.857-1.877,44.931,44.931,0,0,1,4.7-3.392,3.562,3.562,0,0,0,1.312-3.218V127.9Z" transform="translate(-530.462 -114.159)" fill="#00a94f"/>
  <path id="Path_87" data-name="Path 87" d="M656.348,108.285c.528-.66,5.424-3.652,6.126-4.226A3.507,3.507,0,0,0,664,101.513V95.24a3.992,3.992,0,0,1-1.13,2.391c-.728.946-4.034,2.737-5.667,3.886a4.276,4.276,0,0,0-2.2,3.706v11.51h.71v-6.076a3.83,3.83,0,0,1,.585-2.372" transform="translate(-526.65 -89.234)" fill="#00a94f"/>
  <path id="Path_88" data-name="Path 88" d="M625.038,102.042a58.974,58.974,0,0,1-4.9-4.089A4.326,4.326,0,0,1,619,95.535v5.826a4.334,4.334,0,0,0,1.842,3.371,51.152,51.152,0,0,1,4.082,3.2,4.565,4.565,0,0,1,1.18,3.292v5.734h.71V105.679a3.682,3.682,0,0,0-1.823-3.636" transform="translate(-499.175 -89.459)" fill="#00a94f"/>
  <path id="Path_89" data-name="Path 89" d="M267.318,168h-1.394l-1.74,2.325V168H263v5.683h1.184v-2.491c.076.109,1.81,2.491,1.81,2.491h1.51s-2.289-3.014-2.321-3.053c.026-.033,2.209-2.63,2.209-2.63Z" transform="translate(-227.479 -144.763)" fill="#98867d"/>
  <path id="Path_90" data-name="Path 90" d="M311.424,169.515c0,.867.558,1.258,1.394,1.578,0,0,.1.033.1.033.462.162.944.333.942.854a.755.755,0,0,1-.763.792,1.2,1.2,0,0,1-1.068-.8l-.019-.053-.829.747.015.018a2.233,2.233,0,0,0,1.924,1.119,1.875,1.875,0,0,0,2.045-1.956c0-1.132-.858-1.466-1.549-1.735-.5-.192-.885-.344-.885-.715a.689.689,0,0,1,.721-.615,1.106,1.106,0,0,1,.889.45l.029.04.6-.817-.013-.019a2.721,2.721,0,0,0-1.71-.642,1.736,1.736,0,0,0-1.821,1.721" transform="translate(-264.249 -144.606)" fill="#98867d"/>
  <path id="Path_91" data-name="Path 91" d="M335.151,168H334v5.683h1.184V168Z" transform="translate(-281.665 -144.763)" fill="#98867d"/>
  <path id="Path_92" data-name="Path 92" d="M350.324,168h-1.4s-1.662,2.216-1.741,2.325V168H346v5.683h1.184v-2.491l1.808,2.491h1.515s-2.3-3.014-2.323-3.053c.023-.033,2.21-2.63,2.21-2.63Z" transform="translate(-290.824 -144.763)" fill="#98867d"/>
  <path id="Path_93" data-name="Path 93" d="M417.941,168.237H417v5.447h1.421v-3.671c-.025.1,3.1,3.914,3.1,3.908h.93V168h-1.184v3.866c-.181-.1-3.3-3.914-3.3-3.629Z" transform="translate(-345.01 -144.763)" fill="#98867d"/>
  <path id="Path_94" data-name="Path 94" d="M493.857,168.237H493v5.447h1.184v-3.671c.129.1,3.246,3.914,3.246,3.908h.78V168h-1.184v3.866a33.017,33.017,0,0,0-3.149-3.629Z" transform="translate(-403.013 -144.763)" fill="#98867d"/>
  <path id="Path_95" data-name="Path 95" d="M526.32,168h-1.391s-1.666,2.216-1.745,2.325V168H522v5.683h1.184v-2.491c.077.109,1.808,2.491,1.808,2.491h1.513s-2.292-3.014-2.323-3.053l2.212-2.63Z" transform="translate(-425.146 -144.763)" fill="#98867d"/>
  <path id="Path_96" data-name="Path 96" d="M288.093,168h-.958l-2.445,5.92h1.382s.484-1.152.5-1.184h2.069c.016.048.468,1.184.468,1.184h1.386L288.121,168Zm-.528,1.606c.053.128.7,1.88.73,1.946h-1.368c.026-.083.6-1.828.638-1.946" transform="translate(-244.032 -144.763)" fill="#98867d"/>
  <path id="Path_97" data-name="Path 97" d="M364.792,170.791a3,3,0,0,0,.978,2.231,3.054,3.054,0,0,0,2.1.785,3,3,0,0,0,2.087-5.223,3.044,3.044,0,0,0-2.1-.786,3,3,0,0,0-3.07,2.993m2,1.428a2.1,2.1,0,0,1-.7-1.463,1.816,1.816,0,0,1,1.773-1.807,1.679,1.679,0,0,1,1.15.448,1.85,1.85,0,0,1,.613,1.352,1.977,1.977,0,0,1-1.771,1.914,1.61,1.61,0,0,1-1.066-.444" transform="translate(-305.166 -144.609)" fill="#98867d"/>
  <path id="Path_98" data-name="Path 98" d="M396.028,168H396v5.683h1.184v-2.22c.079.132,1.361,2.22,1.361,2.22h1.426s-1.586-2.323-1.627-2.385a1.534,1.534,0,0,0,1.155-1.572,3.175,3.175,0,0,0-.026-.379,1.546,1.546,0,0,0-.426-.861,2.1,2.1,0,0,0-1.5-.486Zm1.294.947a1.269,1.269,0,0,1,.877.221.64.64,0,0,1,.2.379,1.238,1.238,0,0,1,.015.206c0,.6-.332.851-1.109.851h-.117v-1.658Z" transform="translate(-328.983 -144.763)" fill="#98867d"/>
  <path id="Path_99" data-name="Path 99" d="M447.024,168H447v5.683h1.908c1.241,0,1.98-.612,1.98-1.622a1.5,1.5,0,0,0-.026-.307,1.3,1.3,0,0,0-.991-1.115,1.291,1.291,0,0,0,.508-1.076,2.393,2.393,0,0,0-.031-.383,1.29,1.29,0,0,0-.393-.762,2.1,2.1,0,0,0-1.446-.419Zm1.321,3.315a1.465,1.465,0,0,1,.965.207.554.554,0,0,1,.166.318.823.823,0,0,1,.014.16c0,.68-.52.736-1.1.736h-.2c0-.062,0-1.377,0-1.421Zm-.075-2.368a.948.948,0,0,1,.648.174.588.588,0,0,1,.17.338.856.856,0,0,1,.015.187c0,.535-.222.722-.852.722h-.106c0-.066,0-1.372,0-1.421Z" transform="translate(-367.906 -144.763)" fill="#98867d"/>
  <path id="Path_100" data-name="Path 100" d="M468.656,168H467.7l-2.443,5.92h1.376l.506-1.184H469.2c.02.048.468,1.184.468,1.184h1.392L468.682,168Zm-.526,1.606c.051.128.7,1.88.726,1.946h-1.365c.026-.083.6-1.828.64-1.946" transform="translate(-381.84 -144.763)" fill="#98867d"/>
  <path id="Path_101" data-name="Path 101" d="M189.856,169H188v.71h1.894V169Z" transform="translate(-170.239 -145.527)" fill="#98867d"/>
  <path id="Path_102" data-name="Path 102" d="M198.812,181H198l.237,1.658-.237.424v.042a.618.618,0,0,0,.188.493.96.96,0,0,0,.595.224h.875l-.012-.71h-.491a1.33,1.33,0,0,1-.155-.1.689.689,0,0,0-.29-.2l.237-.187V181Z" transform="translate(-177.87 -154.685)" fill="#98867d"/>
  <path id="Path_103" data-name="Path 103" d="M188.832,175H188v3.079a3.076,3.076,0,0,1,.237.424V178.5s-.141.355,0,.471c.232.21.587.214.6.294h1.061v-.71h-.761a1.612,1.612,0,0,1-.162-.1.665.665,0,0,0-.26-.2l.237-.187V175Z" transform="translate(-170.239 -150.106)" fill="#98867d"/>
  <path id="Path_104" data-name="Path 104" d="M200.964,168H198l.036,3.079h2.37a.635.635,0,0,0,.672-.677l-.027-2.4Zm-.777.71c0,.136.014,1.427.014,1.427,0,.467-.064.467-.449.467h-.876c0-.138-.02-1.793-.02-1.894Z" transform="translate(-177.871 -144.763)" fill="#98867d"/>
  <path id="Path_105" data-name="Path 105" d="M202.142,173H200v.71h2.368V173Z" transform="translate(-179.398 -148.579)" fill="#98867d"/>
  <path id="Path_106" data-name="Path 106" d="M204.44,183h-.73l.562,1.4.193.5v0a.585.585,0,0,0,.641.472h.568l0-.6-.161.009c-.22,0-.318-.043-.485-.442L204.468,183Z" transform="translate(-182.229 -156.211)" fill="#98867d"/>
  <path id="Path_107" data-name="Path 107" d="M186,173.631l.01.561h2.358v-.474H186Z" transform="translate(-168.713 -149.061)" fill="#98867d"/>
  <path id="Path_108" data-name="Path 108" d="M186.067,179,183,179l.009.708h3.07l-.009-.71Z" transform="translate(-166.423 -153.159)" fill="#98867d"/>
  <path id="Path_109" data-name="Path 109" d="M208.609,182s-.16.57-.16.576a.355.355,0,0,1-.405.209l-.044-.016.007.636h.552c.455,0,.486-.338.486-.343s.269-1.034.269-1.034l.012-.044-.71,0Z" transform="translate(-185.503 -155.434)" fill="#98867d"/>
  <path id="Path_110" data-name="Path 110" d="M185.608,168h-.83l-.668,1.3c-.077.123-.342.117-.342.117h-.027l.013.71.465,0a.437.437,0,0,0,.436-.289c-.006,0,.992-1.787.992-1.787l.031-.054Z" transform="translate(-166.99 -144.763)" fill="#98867d"/>
  <path id="Path_111" data-name="Path 111" d="M233.962,169H231.1l.017.71h3.035l-.023-.71Z" transform="translate(-203.131 -145.527)" fill="#98867d"/>
  <path id="Path_112" data-name="Path 112" d="M221.833,168h-.766l-.6,1.344c-.055.105-.272.1-.272.1l-.069,0,.017.686.523,0a.4.4,0,0,0,.409-.3c0,.009.841-1.729.841-1.729l.051-.1Z" transform="translate(-194.756 -144.763)" fill="#98867d"/>
  <path id="Path_113" data-name="Path 113" d="M221.981,175.03l-.418.842c-.116.219-.215.308-.349.3l-.37.009.027.712h.516a.927.927,0,0,0,.838-.538s.616-1.258.616-1.258l.046-.1H222Z" transform="translate(-195.306 -150.106)" fill="#98867d"/>
  <path id="Path_114" data-name="Path 114" d="M222.557,181h-.791l.052,2.842h.951L222.725,181Z" transform="translate(-196.009 -154.685)" fill="#98867d"/>
  <path id="Path_115" data-name="Path 115" d="M234.1,177h-.806l.071,2.456,0,.108c.009.264-.009.277-.064.278h-1.831l.016.71,2.138.014a.648.648,0,0,0,.712-.672l-.008-.391-.066-2.5Z" transform="translate(-203.413 -151.632)" fill="#98867d"/>
  <path id="Path_116" data-name="Path 116" d="M233.818,176h-3.094l.024.71h3.263l-.026-.71Z" transform="translate(-202.846 -150.869)" fill="#98867d"/>
  <path id="Path_117" data-name="Path 117" d="M155.048,168h-6.332l.016.71,6.445.021-.006-.731Z" transform="translate(-140.258 -144.763)" fill="#98867d"/>
  <path id="Path_118" data-name="Path 118" d="M157.327,176H151l.011.71h6.423l-.014-.71Z" transform="translate(-142.001 -150.869)" fill="#98867d"/>
  <path id="Path_119" data-name="Path 119" d="M157.363,173H152v.474h5.447V173Z" transform="translate(-142.764 -148.579)" fill="#98867d"/>
  <path id="Path_120" data-name="Path 120" d="M162.8,167h-.836l-.01,2.842h.957L162.895,167Z" transform="translate(-150.365 -144)" fill="#98867d"/>
  <path id="Path_121" data-name="Path 121" d="M161.294,180H160.5l.034,1.87.007.295c0,.2-.013.2-.163.2H160v.077l.009.633h.778c.238,0,.639-.1.633-.714l0-.458L161.38,180Z" transform="translate(-148.87 -153.922)" fill="#98867d"/>
  <path id="Path_122" data-name="Path 122" d="M151.39,188.593a.782.782,0,0,0,.543-.338s.15-.229.164-.255h.759l-.045.051s-.27.351-.27.351-.06.068-.06.068c-.382.46-.4.478-1.016.478H151v-.237l.474,0" transform="translate(-142.001 -160.027)" fill="#98867d"/>
  <path id="Path_123" data-name="Path 123" d="M151.933,178.3c0,.009.591.011.814.011a.279.279,0,0,0-.046.055l-.287.361c-.458.549-.52.566-.972.686h-.607c0-.212-.006-.5-.006-.474h.326a.791.791,0,0,0,.517-.317l.017-.026s.126-.155.126-.155.12-.139.12-.141" transform="translate(-141.869 -152.626)" fill="#98867d"/>
  <path id="Path_124" data-name="Path 124" d="M167.614,178.443s.185.154.185.156l.028.025a1.267,1.267,0,0,0,.607.317h.5a4.183,4.183,0,0,1,0,.474H168.3a2.329,2.329,0,0,1-1.178-.685l-.424-.362a.634.634,0,0,0-.064-.055c.219,0,.805,0,.805-.011l.172.141" transform="translate(-153.935 -152.626)" fill="#98867d"/>
  <path id="Path_125" data-name="Path 125" d="M150.835,184.038a.464.464,0,0,0-.055-.061h.8l.047-.007a1.323,1.323,0,0,0,.679.244h.425c0,.067.01.427.01.474l-.656,0a1.1,1.1,0,0,1-1.137-.512c.005,0-.112-.156-.112-.156" transform="translate(-141.833 -156.952)" fill="#98867d"/>
  <path id="Path_126" data-name="Path 126" d="M169.06,187.991c.022.034.16.236.16.236a.767.767,0,0,0,.544.33s.3.006.4.006c0,.054.011.334.011.377l-.463,0c-.611,0-.627-.021-1.021-.474l-.063-.074-.284-.345a.467.467,0,0,0-.049-.057l.878,0" transform="translate(-155.198 -160.02)" fill="#98867d"/>
  <path id="Path_127" data-name="Path 127" d="M169.3,183.888s.058-.073.063-.075.56,0,.773,0a.521.521,0,0,1-.046.054s-.11.156-.11.156a1.071,1.071,0,0,1-1.123.519s-.525,0-.644,0c0-.058-.008-.4-.008-.45h.437c.322,0,.515-.036.658-.206" transform="translate(-155.135 -156.832)" fill="#98867d"/>
  <path id="Path_128" data-name="Path 128" d="M120.993,178H114l0,.71h7.1l0-.71Z" transform="translate(-113.763 -152.395)" fill="#98867d"/>
  <path id="Path_129" data-name="Path 129" d="M121.807,168H116l0,.71h5.916l0-.71Z" transform="translate(-115.29 -144.763)" fill="#98867d"/>
  <path id="Path_130" data-name="Path 130" d="M132.761,169h-.783l-.007,5.624.954.016v-5.625Z" transform="translate(-127.479 -145.527)" fill="#98867d"/>
  <path id="Path_131" data-name="Path 131" d="M120.345,170v3.756a1.833,1.833,0,0,1-.483,1.153c-.445.4-.59.526-.59.526l-.682-.609.53-.477s.277-.229.277-1.007V170Z" transform="translate(-117.266 -146.29)" fill="#98867d"/>
  <path id="Path_132" data-name="Path 132" d="M118.478,98.585c1.624.589,2.235.17,2.261.153l.05-.036-.343-1.417-.111.063s-.443.24-1.649-.172a3.726,3.726,0,0,0-2.959.038,3.68,3.68,0,0,0-1.721,2.131l-.006.012v.876h1.421v3.552h-.71v1.658h3.758a1.64,1.64,0,0,0,1.238-.336,1.973,1.973,0,0,0,.451-1.554V101.5a2.064,2.064,0,0,0-.933-1.931,6.105,6.105,0,0,0-3.213-.669,2.314,2.314,0,0,1,2.509-.311m-.021,3.3v1.325a.607.607,0,0,1-.138.468.717.717,0,0,1-.455.1h-.828v-3.427a2.2,2.2,0,0,1,.924.269,1.2,1.2,0,0,1,.5,1.182" transform="translate(-113.763 -90.494)" fill="#98867d"/>
  <path id="Path_133" data-name="Path 133" d="M191.192,99.656a2.625,2.625,0,0,0-2.8-2.73,3.5,3.5,0,0,0-2.995,1.64l-.039.068,1.338.87.051-.1a1.89,1.89,0,0,1,1.513-.939,1.247,1.247,0,0,1,.875.31,1.283,1.283,0,0,1,.4.982v5.709h1.658Z" transform="translate(-168.222 -90.52)" fill="#98867d"/>
  <path id="Path_134" data-name="Path 134" d="M256.23,99.656a2.625,2.625,0,0,0-2.8-2.73,3.491,3.491,0,0,0-2.986,1.64l-.037.068,1.333.87.051-.1a1.872,1.872,0,0,1,1.51-.939,1.24,1.24,0,0,1,.874.31,1.28,1.28,0,0,1,.4.982v5.709h1.658Z" transform="translate(-217.867 -90.52)" fill="#98867d"/>
  <path id="Path_135" data-name="Path 135" d="M283.163,104.159a.576.576,0,1,0,0-1.152.576.576,0,1,0,0,1.152m-2.269-5.089h2.5a1.87,1.87,0,0,1,1.289.311,1.706,1.706,0,0,1,.471,1.45v2.728a1.98,1.98,0,1,1-1.979-1.867c.145,0,.253.005.322.01v-.635c0-.313-.063-.427-.118-.47a.777.777,0,0,0-.471-.105H279V99.366a3.655,3.655,0,0,1,1.641-2.068,3.7,3.7,0,0,1,2.849-.184,2.417,2.417,0,0,0,1.719-.011l.095-.053.038.1.468,1.2.028.068-.064.038a3.311,3.311,0,0,1-2.485.095c-1.67-.467-2.3.3-2.491.607" transform="translate(-239.69 -90.516)" fill="#98867d"/>
  <path id="Path_136" data-name="Path 136" d="M421.275,104.159a.576.576,0,1,0,0-1.152.576.576,0,1,0,0,1.152m-2.381-5.089h2.5a1.894,1.894,0,0,1,1.295.311,1.713,1.713,0,0,1,.465,1.45v2.728a1.982,1.982,0,1,1-1.98-1.867c.145,0,.248.005.322.01v-.635c0-.313-.061-.427-.118-.47a.773.773,0,0,0-.473-.105H417V99.379l0-.013a3.386,3.386,0,0,1,4.488-2.252,2.437,2.437,0,0,0,1.723-.011l.093-.053.534,1.366-.066.038a3.311,3.311,0,0,1-2.485.095c-1.664-.467-2.308.3-2.489.607" transform="translate(-345.01 -90.516)" fill="#98867d"/>
  <path id="Path_137" data-name="Path 137" d="M315.612,96.6a5.147,5.147,0,0,0-3.586,1.392l-.026.025V99.4l.008.02c.507.143,1.048.309,1.285.393a1.508,1.508,0,0,0-.346,1.462v3.946h1.421V101.5a1.736,1.736,0,0,1,.259-.917,1.707,1.707,0,0,1,.766-.481l-.077-.019V99.026L315.252,99c-.026-.009-.655-.249-1.007-.341-.3-.072-.5-.132-.615-.173a3.65,3.65,0,0,1,1.792-.417c.024,0,2.261.05,2.261,1.9v5.256h1.658V99.56c0-1.777-1.452-2.937-3.7-2.959" transform="translate(-264.875 -90.271)" fill="#98867d"/>
  <path id="Path_138" data-name="Path 138" d="M349.171,100.405a.577.577,0,1,0,0-1.153.577.577,0,1,0,0,1.153m4.276-6.293a2.717,2.717,0,0,1-.32.248,2.748,2.748,0,0,1,.168.28,3.054,3.054,0,0,1,.377,1.513v5.557h-1.658V99.224a2.747,2.747,0,0,0-2.419-1.975.869.869,0,0,0-.9.816v.2a2.173,2.173,0,0,1,.319-.02,1.64,1.64,0,0,1,1.742,1.646,1.742,1.742,0,0,1-3.482,0V97.931a2.323,2.323,0,0,1,2.485-2.319,3.311,3.311,0,0,1,2.488,1.143v-.434c0-1.426-1.476-1.748-2-1.748A2.449,2.449,0,0,0,347.93,95.8l-.038.082-1.459-.631.034-.08a4.174,4.174,0,0,1,3.788-2.139,4.235,4.235,0,0,1,1.64.3,1.2,1.2,0,0,0,.276-.194,1.705,1.705,0,0,0,.619-1.053l0-.086h1.767l-.008.1a3.314,3.314,0,0,1-1.054,1.958" transform="translate(-291.154 -86.761)" fill="#98867d"/>
  <path id="Path_139" data-name="Path 139" d="M355.341,76.4v-.011l0-.011a3.746,3.746,0,0,0-3.679-2.677A3.85,3.85,0,0,0,348,76.374v1.185l.115-.017a22.583,22.583,0,0,1,7.106.179l.12.022Zm-1.672-.275a11.676,11.676,0,0,0-2.273-.24,11.4,11.4,0,0,0-1.6.095,2.241,2.241,0,0,1,1.853-.8,2.5,2.5,0,0,1,2.017.944" transform="translate(-292.35 -72.795)" fill="#98867d"/>
  <path id="Path_140" data-name="Path 140" d="M386.61,96.6a5.134,5.134,0,0,0-3.586,1.392l-.024.025V99.4l.044.02c.5.143,1.046.309,1.285.393a1.57,1.57,0,0,0-.381,1.462v3.946h1.421V101.5a2.236,2.236,0,0,1,.292-.917,1.7,1.7,0,0,1,.766-.481l-.111-.019V99.026L386.252,99c-.026-.009-.658-.249-1.007-.341-.3-.072-.493-.132-.618-.173a3.656,3.656,0,0,1,1.8-.417c.021,0,2.261.05,2.261,1.9v5.255h1.658V99.56c0-1.777-1.452-2.937-3.7-2.959" transform="translate(-319.062 -90.271)" fill="#98867d"/>
  <path id="Path_141" data-name="Path 141" d="M471.2,97.922a.568.568,0,1,0,0,1.135.568.568,0,1,0,0-1.135m6.376.4v6.867h-1.658V98.435l-2.842,4.072v2.686h-1.658v-4.871c-.074,0-.184.008-.324.008a1.888,1.888,0,1,1,0-3.765,1.881,1.881,0,0,1,1.982,1.862v1.419l.2-.346,2.137-2.832h.41a1.9,1.9,0,0,1,1.34.333,1.685,1.685,0,0,1,.459,1.43" transform="translate(-384.747 -90.244)" fill="#98867d"/>
  <path id="Path_142" data-name="Path 142" d="M514.063,97.98a.568.568,0,1,0,0,1.136.568.568,0,1,0,0-1.136m4.987-1.253v6.762a1.733,1.733,0,0,1-.462,1.45,1.783,1.783,0,0,1-1.262.313h-3.419a1.776,1.776,0,0,1-1.264-.315,1.718,1.718,0,0,1-.46-1.447v-.564a1.788,1.788,0,0,1,.83-1.579,2.566,2.566,0,0,1-1.083-2.337,2.159,2.159,0,0,1,2.139-2.368A1.863,1.863,0,0,1,516,98.475a1.841,1.841,0,0,1-1.928,1.833c-.059,0-.1,0-.144,0a.972.972,0,0,0,.709.425,5.092,5.092,0,0,0,1.231.058l.107-.01v1.4h-.892c-.7,0-1.323.059-1.323.772,0,.548.138.649.858.649h2.177a.788.788,0,0,0,.461-.1.587.587,0,0,0,.14-.468v-6.3Z" transform="translate(-417.459 -90.304)" fill="#98867d"/>
  <path id="Path_143" data-name="Path 143" d="M153.469,102.872a.62.62,0,1,0,0,1.241.62.62,0,1,0,0-1.241m1.911.605a1.871,1.871,0,0,1-.551,1.376,2.278,2.278,0,0,1-1.543.637,1.676,1.676,0,0,1-1.838-1.678v-.7a8.32,8.32,0,0,0-.881.713,18.063,18.063,0,0,0-1.352,1.4c-.192.221-.21.24-.265.24h-1.527v-4.823c-.076,0-.184.009-.327.009a1.871,1.871,0,1,1,0-3.729,1.873,1.873,0,0,1,1.984,1.844v3.681l-.029.708a14.21,14.21,0,0,1,1.166-1.064,5.562,5.562,0,0,1,1.231-.784V96.94H153.1v4.148a2.561,2.561,0,0,1,2.357,2.388m-8.3-5.283a.568.568,0,1,0,0,1.136.568.568,0,1,0,0-1.136" transform="translate(-137.476 -90.517)" fill="#98867d"/>
  <path id="Path_144" data-name="Path 144" d="M219.348,100a.578.578,0,1,0,0,1.157.578.578,0,1,0,0-1.157m3.805.172v4.973h-1.421v-4.9a2.368,2.368,0,0,0-4.73.082,3.528,3.528,0,0,0,.267,1.362c.1-.393.286-1.117.286-1.117a1.928,1.928,0,0,1,1.877-1.615,1.747,1.747,0,0,1,1.793,1.719,1.728,1.728,0,0,1-1.793,1.706,1.9,1.9,0,0,1-.708-.154,8.719,8.719,0,0,0-.309,1.132,8.319,8.319,0,0,0-.235,1.695v.093h-1.658v-.5a5.713,5.713,0,0,0-.5-2.041,6.15,6.15,0,0,1-.565-2.8,3.747,3.747,0,0,1,3.886-3.308,3.913,3.913,0,0,1,2.814,1.037,3.57,3.57,0,0,1,1.075,2.606" transform="translate(-191.184 -90.197)" fill="#98867d"/>
  <path id="Path_145" data-name="Path 145" d="M445.2,83.615a.577.577,0,1,0,0-1.153.577.577,0,1,0,0,1.153m1.993-.516a1.879,1.879,0,0,1-1.952,1.845,1.845,1.845,0,0,1-1.922-1.845V75.014l.088-1.92-1.243,2.116h-.9l-.931-2.979a1.72,1.72,0,0,1-.111-.238c-.044-.128-.076-.148-.122-.16s-.094-.054-.094-.1V70h.752a.562.562,0,0,1,.388.192.965.965,0,0,1,.189.312l.7,2.06L443.53,70h1.443V81.255a1.967,1.967,0,0,1,2.261,1.844" transform="translate(-362.564 -69.971)" fill="#98867d"/>
</svg>
