<svg id="LOGO" xmlns="http://www.w3.org/2000/svg" width="242.378" height="35.942" viewBox="0 0 242.378 35.942">
  <path id="Icon_metro-hammer" data-name="Icon metro-hammer" d="M.331,24.5l14.5-13.335-.683-.693a3.21,3.21,0,0,1-.915-2.039c-.027-.012-.053-.025-.079-.039L10.4,6.646A1.174,1.174,0,0,1,10.452,5.1L15.181.3A1.133,1.133,0,0,1,16.7.25L18.43,3.038c.014.026.027.053.039.08a3.123,3.123,0,0,1,2.01.927l2.606,2.644A3.21,3.21,0,0,1,24,8.728c.027.012.053.025.079.039l2.748,1.75a1.174,1.174,0,0,1-.051,1.546l-4.73,4.8a1.133,1.133,0,0,1-1.524.052L18.8,14.125c-.014-.026-.027-.053-.039-.08a3.123,3.123,0,0,1-2.01-.927l-.757-.768L2.849,27.056a.9.9,0,0,1-1.314.145L.188,25.834A.934.934,0,0,1,.331,24.5Z" transform="translate(103.779 24.759) rotate(-66)" fill="#15355f"/>
  <path id="Path_1786" data-name="Path 1786" d="M7.272-72.316h5.792v24.791h13v5.4H7.272Zm33.164,0h6.607L58.583-42.128H52.191l-2.531-7.21H37.819l-2.531,7.21H28.895Zm7.336,17.75-2.746-7.547-1.115-3.668h-.343l-1.115,3.668-2.746,7.547Zm11.155-17.75h6.135l4.762,17.624.686,3.246h.343l.9-3.246,4.419-13.576h5.406l4.462,13.576.858,3.2h.343l.644-3.2,4.462-17.624h6.135L90.331-42.128H84.754L79.949-56.674,79.048-60H78.7l-.9,3.331L73-42.128H67.421Zm44.619,0h5.792v24.791h13v5.4H103.545Z" transform="translate(-7.272 78.052)" fill="#15355f"/>
  <path id="Path_1787" data-name="Path 1787" d="M1.212-72.316H7.476l6.35,18.172,1.115,3.879h.343l1.2-3.879,6.607-18.172h6.264l-11.2,30.188H12.066Zm38.827,5.4v7H52.352v5.4H40.039v7H53.725v5.4H34.247V-72.316H53.725v5.4Zm20.293-5.4h11.2a11.764,11.764,0,0,1,4.2.717,9.734,9.734,0,0,1,3.239,1.982A8.618,8.618,0,0,1,81.054-66.6a9.819,9.819,0,0,1,.729,3.816,7.8,7.8,0,0,1-.515,2.846,8.494,8.494,0,0,1-1.416,2.4,10.355,10.355,0,0,1-2.1,1.9,10.715,10.715,0,0,1-2.531,1.286l-.043.3,8.237,11.594v.337h-6.65L68.826-53.47h-2.7v11.341H60.332ZM71.486-58.7a4.56,4.56,0,0,0,3.239-1.181,3.916,3.916,0,0,0,1.266-2.993,4.489,4.489,0,0,0-.279-1.56,3.907,3.907,0,0,0-.837-1.349,4.12,4.12,0,0,0-1.394-.949,4.808,4.808,0,0,0-1.909-.358H66.123v8.39Zm23.639,2.53L84.786-72.316h6.907l6.135,9.992h.343l5.921-9.992h6.993L100.917-56.168v14.04H95.126Z" transform="translate(131.293 78.052)" fill="#15355f"/>
</svg>
