<svg id="apple_store" data-name="apple store" xmlns="http://www.w3.org/2000/svg" width="115.809" height="34.801" viewBox="0 0 115.809 34.801">
  <g id="Group_160" data-name="Group 160">
    <path id="Path_36" data-name="Path 36" d="M116.7,32.2a3.412,3.412,0,0,1-3.335,3.488H4.229A3.417,3.417,0,0,1,.89,32.2V4.383A3.421,3.421,0,0,1,4.229.89H113.363A3.416,3.416,0,0,1,116.7,4.383V32.2Z" transform="translate(-0.89 -0.89)"/>
    <g id="Group_156" data-name="Group 156" transform="translate(10.352 4.561)">
      <g id="Group_155" data-name="Group 155">
        <path id="Path_37" data-name="Path 37" d="M27.871,18.867a5.082,5.082,0,0,1,2.4-4.262,5.152,5.152,0,0,0-4.067-2.215c-1.711-.181-3.371,1.031-4.242,1.031-.889,0-2.231-1.014-3.678-.984a5.41,5.41,0,0,0-4.558,2.8c-1.971,3.437-.5,8.489,1.387,11.268.945,1.361,2.048,2.88,3.493,2.827,1.413-.059,1.941-.908,3.647-.908,1.69,0,2.186.908,3.659.874,1.517-.025,2.472-1.367,3.384-2.74a11.282,11.282,0,0,0,1.547-3.175A4.9,4.9,0,0,1,27.871,18.867Z" transform="translate(-12.792 -6.979)" fill="#fff"/>
        <path id="Path_38" data-name="Path 38" d="M26.43,9.8a5.024,5.024,0,0,0,1.136-3.583A5.043,5.043,0,0,0,24.3,7.92a4.78,4.78,0,0,0-1.166,3.451A4.164,4.164,0,0,0,26.43,9.8Z" transform="translate(-14.135 -6.217)" fill="#fff"/>
      </g>
    </g>
  </g>
  <g id="Group_157" data-name="Group 157" transform="translate(36.115 16.315)">
    <path id="Path_39" data-name="Path 39" d="M52.182,29.857H50.207l-1.082-3.425H45.364l-1.031,3.425H42.41L46.136,18.2h2.3ZM48.8,24.995,47.82,21.95q-.155-.467-.584-2.2H47.2q-.171.744-.55,2.2l-.961,3.045Z" transform="translate(-42.41 -18.025)" fill="#fff"/>
    <path id="Path_40" data-name="Path 40" d="M63.459,25.984a4.8,4.8,0,0,1-1.151,3.39,3.353,3.353,0,0,1-2.559,1.108,2.553,2.553,0,0,1-2.37-1.193h-.035v4.429H55.49V24.652q0-1.349-.069-2.768h1.631l.1,1.333h.035a3.285,3.285,0,0,1,5.281-.329A4.655,4.655,0,0,1,63.459,25.984Zm-1.889.068a3.481,3.481,0,0,0-.55-2.024,1.894,1.894,0,0,0-1.614-.831,1.92,1.92,0,0,0-1.245.458,2.128,2.128,0,0,0-.73,1.2,2.463,2.463,0,0,0-.086.57v1.4A2.256,2.256,0,0,0,57.9,28.38a1.845,1.845,0,0,0,1.451.632,1.894,1.894,0,0,0,1.631-.813A3.6,3.6,0,0,0,61.57,26.053Z" transform="translate(-44.104 -18.46)" fill="#fff"/>
    <path id="Path_41" data-name="Path 41" d="M74.5,25.984a4.8,4.8,0,0,1-1.152,3.39,3.35,3.35,0,0,1-2.558,1.108,2.551,2.551,0,0,1-2.369-1.193h-.035v4.429H66.528V24.652q0-1.349-.069-2.768H68.09l.1,1.333h.035a3.286,3.286,0,0,1,5.282-.329A4.668,4.668,0,0,1,74.5,25.984Zm-1.889.068a3.481,3.481,0,0,0-.551-2.024,1.892,1.892,0,0,0-1.614-.831,1.922,1.922,0,0,0-1.246.458,2.127,2.127,0,0,0-.729,1.2,2.51,2.51,0,0,0-.086.57v1.4a2.263,2.263,0,0,0,.557,1.549,1.849,1.849,0,0,0,1.453.632,1.894,1.894,0,0,0,1.631-.813A3.6,3.6,0,0,0,72.607,26.053Z" transform="translate(-45.541 -18.46)" fill="#fff"/>
    <path id="Path_42" data-name="Path 42" d="M86.964,26.563a3.119,3.119,0,0,1-1.028,2.422,4.535,4.535,0,0,1-3.153,1.021,5.487,5.487,0,0,1-3-.726l.43-1.557a5.055,5.055,0,0,0,2.681.745,2.521,2.521,0,0,0,1.633-.477,1.561,1.561,0,0,0,.583-1.274,1.63,1.63,0,0,0-.481-1.2,4.463,4.463,0,0,0-1.6-.9q-3.04-1.142-3.039-3.344a2.968,2.968,0,0,1,1.066-2.356A4.18,4.18,0,0,1,83.891,18a5.584,5.584,0,0,1,2.627.554l-.464,1.523a4.531,4.531,0,0,0-2.215-.536,2.232,2.232,0,0,0-1.527.485,1.389,1.389,0,0,0-.464,1.056,1.429,1.429,0,0,0,.531,1.142,5.993,5.993,0,0,0,1.684.9,5.709,5.709,0,0,1,2.2,1.418A2.975,2.975,0,0,1,86.964,26.563Z" transform="translate(-47.275 -18.001)" fill="#fff"/>
    <path id="Path_43" data-name="Path 43" d="M94.327,23.014H92.283V27.1q0,1.558,1.082,1.557a3.275,3.275,0,0,0,.824-.087l.051,1.419a4.173,4.173,0,0,1-1.442.207,2.217,2.217,0,0,1-1.718-.675,3.332,3.332,0,0,1-.618-2.267V23.012H89.244v-1.4h1.218v-1.54l1.821-.554V21.61h2.044v1.4Z" transform="translate(-48.507 -18.189)" fill="#fff"/>
    <path id="Path_44" data-name="Path 44" d="M104.467,26.019a4.633,4.633,0,0,1-1.1,3.183,3.911,3.911,0,0,1-3.058,1.28,3.719,3.719,0,0,1-2.927-1.228,4.491,4.491,0,0,1-1.091-3.1,4.587,4.587,0,0,1,1.125-3.2,3.878,3.878,0,0,1,3.03-1.246A3.8,3.8,0,0,1,103.4,22.94,4.44,4.44,0,0,1,104.467,26.019Zm-1.924.06a3.8,3.8,0,0,0-.5-2,1.83,1.83,0,0,0-1.665-1.006,1.857,1.857,0,0,0-1.7,1.006,3.877,3.877,0,0,0-.5,2.03,3.8,3.8,0,0,0,.5,1.994,1.889,1.889,0,0,0,3.349-.018A3.817,3.817,0,0,0,102.543,26.079Z" transform="translate(-49.425 -18.46)" fill="#fff"/>
    <path id="Path_45" data-name="Path 45" d="M111.953,23.527a3.2,3.2,0,0,0-.585-.052,1.748,1.748,0,0,0-1.512.745,2.814,2.814,0,0,0-.464,1.66v4.412h-1.854l.017-5.76q0-1.454-.07-2.647H109.1l.068,1.609h.051a2.875,2.875,0,0,1,.927-1.332,2.231,2.231,0,0,1,1.34-.45,2.956,2.956,0,0,1,.464.034v1.781Z" transform="translate(-50.882 -18.46)" fill="#fff"/>
    <path id="Path_46" data-name="Path 46" d="M121.046,25.688a4.413,4.413,0,0,1-.068.847h-5.563a2.448,2.448,0,0,0,.807,1.9,2.742,2.742,0,0,0,1.82.588,6.113,6.113,0,0,0,2.251-.4l.291,1.3a6.915,6.915,0,0,1-2.8.52,4.037,4.037,0,0,1-3.05-1.151,4.268,4.268,0,0,1-1.107-3.088,4.84,4.84,0,0,1,1.032-3.166,3.544,3.544,0,0,1,2.918-1.349,3.1,3.1,0,0,1,2.732,1.349A4.572,4.572,0,0,1,121.046,25.688Zm-1.768-.485a2.552,2.552,0,0,0-.36-1.436,1.617,1.617,0,0,0-1.478-.779,1.755,1.755,0,0,0-1.476.761,2.8,2.8,0,0,0-.549,1.453h3.863Z" transform="translate(-51.681 -18.458)" fill="#fff"/>
  </g>
  <g id="Group_159" data-name="Group 159" transform="translate(37.216 4.915)">
    <g id="Group_158" data-name="Group 158">
      <path id="Path_47" data-name="Path 47" d="M48.35,9.618a2.887,2.887,0,0,1-.92,2.329,3.642,3.642,0,0,1-2.421.722,11.142,11.142,0,0,1-1.333-.068V6.965a9.769,9.769,0,0,1,1.57-.119A3.367,3.367,0,0,1,47.5,7.5,2.655,2.655,0,0,1,48.35,9.618Zm-.961.025A2.1,2.1,0,0,0,46.862,8.1a2.069,2.069,0,0,0-1.54-.535,3.83,3.83,0,0,0-.734.06v4.284a4.778,4.778,0,0,0,.616.025,2.147,2.147,0,0,0,1.615-.586A2.358,2.358,0,0,0,47.389,9.643Z" transform="translate(-43.676 -6.592)" fill="#fff"/>
      <path id="Path_48" data-name="Path 48" d="M54.308,10.738a2.276,2.276,0,0,1-.54,1.564,1.921,1.921,0,0,1-1.5.629,1.826,1.826,0,0,1-1.439-.6,2.209,2.209,0,0,1-.535-1.521,2.254,2.254,0,0,1,.552-1.572,1.909,1.909,0,0,1,1.489-.612,1.868,1.868,0,0,1,1.452.6A2.191,2.191,0,0,1,54.308,10.738Zm-.945.03a1.879,1.879,0,0,0-.244-.981.9.9,0,0,0-.818-.494.913.913,0,0,0-.836.494,1.9,1.9,0,0,0-.244,1,1.879,1.879,0,0,0,.244.981.919.919,0,0,0,.827.494.909.909,0,0,0,.818-.5A1.867,1.867,0,0,0,53.362,10.768Z" transform="translate(-44.537 -6.812)" fill="#fff"/>
      <path id="Path_49" data-name="Path 49" d="M61.876,8.719,60.593,12.85h-.835l-.531-1.794a13.509,13.509,0,0,1-.33-1.335H58.88a9.83,9.83,0,0,1-.33,1.335l-.565,1.794h-.845L55.935,8.719h.937l.464,1.964q.168.7.278,1.326h.017q.1-.518.338-1.317l.582-1.972h.743l.558,1.929q.2.706.329,1.36H60.2a13.073,13.073,0,0,1,.278-1.36l.5-1.929h.9Z" transform="translate(-45.272 -6.824)" fill="#fff"/>
      <path id="Path_50" data-name="Path 50" d="M67.66,12.837h-.912V10.471q0-1.094-.826-1.094a.82.82,0,0,0-.658.3,1.071,1.071,0,0,0-.253.708v2.45H64.1V9.887q0-.544-.033-1.182h.8l.043.646h.025a1.323,1.323,0,0,1,.472-.5,1.532,1.532,0,0,1,.826-.232,1.3,1.3,0,0,1,.954.374,1.826,1.826,0,0,1,.472,1.369Z" transform="translate(-46.33 -6.811)" fill="#fff"/>
      <path id="Path_51" data-name="Path 51" d="M70.952,12.582h-.911V6.556h.911Z" transform="translate(-47.108 -6.556)" fill="#fff"/>
      <path id="Path_52" data-name="Path 52" d="M76.657,10.738a2.276,2.276,0,0,1-.54,1.564,1.922,1.922,0,0,1-1.5.629,1.824,1.824,0,0,1-1.439-.6,2.209,2.209,0,0,1-.535-1.521,2.254,2.254,0,0,1,.552-1.572,1.908,1.908,0,0,1,1.488-.612,1.87,1.87,0,0,1,1.453.6A2.191,2.191,0,0,1,76.657,10.738Zm-.946.03a1.879,1.879,0,0,0-.244-.981.9.9,0,0,0-.817-.494.912.912,0,0,0-.836.494,1.9,1.9,0,0,0-.244,1,1.879,1.879,0,0,0,.244.981.919.919,0,0,0,.827.494.907.907,0,0,0,.817-.5A1.859,1.859,0,0,0,75.711,10.768Z" transform="translate(-47.447 -6.812)" fill="#fff"/>
      <path id="Path_53" data-name="Path 53" d="M81.826,12.838h-.819l-.068-.476h-.025a1.4,1.4,0,0,1-1.2.57,1.231,1.231,0,0,1-.936-.374,1.178,1.178,0,0,1-.321-.841,1.285,1.285,0,0,1,.629-1.156,3.244,3.244,0,0,1,1.768-.391v-.077q0-.816-.852-.816a1.9,1.9,0,0,0-1.069.306l-.185-.6a2.614,2.614,0,0,1,1.406-.357q1.607,0,1.609,1.709v1.521A6.5,6.5,0,0,0,81.826,12.838Zm-.946-1.42v-.637q-1.508-.026-1.508.832a.625.625,0,0,0,.175.485.635.635,0,0,0,.445.161.916.916,0,0,0,.558-.191.787.787,0,0,0,.331-.65Z" transform="translate(-48.204 -6.812)" fill="#fff"/>
      <path id="Path_54" data-name="Path 54" d="M87.7,12.582H86.89l-.043-.663h-.025a1.361,1.361,0,0,1-1.317.757,1.539,1.539,0,0,1-1.232-.586,2.3,2.3,0,0,1-.489-1.521,2.406,2.406,0,0,1,.531-1.624,1.629,1.629,0,0,1,1.266-.578,1.226,1.226,0,0,1,1.155.561h.017V6.556h.912v4.913Q87.667,12.072,87.7,12.582Zm-.945-1.742v-.689a1.361,1.361,0,0,0-.025-.289,1.047,1.047,0,0,0-.33-.556.892.892,0,0,0-.61-.225.933.933,0,0,0-.8.408,1.759,1.759,0,0,0-.292,1.045,1.64,1.64,0,0,0,.28.995.936.936,0,0,0,.8.407.876.876,0,0,0,.72-.34A1.137,1.137,0,0,0,86.755,10.84Z" transform="translate(-48.898 -6.556)" fill="#fff"/>
      <path id="Path_55" data-name="Path 55" d="M96.647,10.738a2.276,2.276,0,0,1-.54,1.564,1.92,1.92,0,0,1-1.5.629,1.828,1.828,0,0,1-1.439-.6,2.209,2.209,0,0,1-.535-1.521,2.254,2.254,0,0,1,.552-1.572,1.909,1.909,0,0,1,1.49-.612,1.867,1.867,0,0,1,1.451.6A2.191,2.191,0,0,1,96.647,10.738Zm-.945.03a1.879,1.879,0,0,0-.244-.981.9.9,0,0,0-.818-.494.915.915,0,0,0-.836.494,1.9,1.9,0,0,0-.244,1,1.879,1.879,0,0,0,.244.981.928.928,0,0,0,1.646-.009A1.875,1.875,0,0,0,95.7,10.768Z" transform="translate(-50.049 -6.812)" fill="#fff"/>
      <path id="Path_56" data-name="Path 56" d="M102.345,12.837h-.911V10.471q0-1.094-.827-1.094a.817.817,0,0,0-.658.3,1.067,1.067,0,0,0-.253.708v2.45h-.912V9.887q0-.544-.032-1.182h.8l.043.646h.025a1.336,1.336,0,0,1,.472-.5,1.535,1.535,0,0,1,.827-.232,1.3,1.3,0,0,1,.953.374,1.822,1.822,0,0,1,.472,1.369Z" transform="translate(-50.846 -6.811)" fill="#fff"/>
      <path id="Path_57" data-name="Path 57" d="M109.562,9.262h-1v2.007c0,.51.178.765.531.765a1.594,1.594,0,0,0,.406-.043l.024.7a2.034,2.034,0,0,1-.708.1,1.086,1.086,0,0,1-.843-.331,1.628,1.628,0,0,1-.3-1.114V9.262h-.6V8.574h.6V7.817l.893-.272V8.573h1v.689Z" transform="translate(-51.928 -6.678)" fill="#fff"/>
      <path id="Path_58" data-name="Path 58" d="M114.951,12.582h-.912V10.234q0-1.111-.825-1.111a.871.871,0,0,0-.87.644,1.162,1.162,0,0,0-.043.33v2.484h-.911V6.556h.911V9.045h.017a1.376,1.376,0,0,1,1.232-.679,1.265,1.265,0,0,1,.938.374,1.89,1.89,0,0,1,.464,1.385Z" transform="translate(-52.491 -6.556)" fill="#fff"/>
      <path id="Path_59" data-name="Path 59" d="M120.661,10.576a2.234,2.234,0,0,1-.034.416h-2.734a1.208,1.208,0,0,0,.4.935,1.351,1.351,0,0,0,.9.289,3,3,0,0,0,1.106-.2l.143.638a3.411,3.411,0,0,1-1.376.255,1.979,1.979,0,0,1-1.5-.565,2.091,2.091,0,0,1-.544-1.517,2.375,2.375,0,0,1,.506-1.555,1.738,1.738,0,0,1,1.433-.662,1.521,1.521,0,0,1,1.34.662A2.217,2.217,0,0,1,120.661,10.576Zm-.87-.237a1.243,1.243,0,0,0-.177-.705.8.8,0,0,0-.725-.383.863.863,0,0,0-.725.374,1.4,1.4,0,0,0-.271.714h1.9Z" transform="translate(-53.224 -6.811)" fill="#fff"/>
    </g>
  </g>
</svg>
