<svg id="instagram-sketched" xmlns="http://www.w3.org/2000/svg" width="32" height="32" viewBox="0 0 32 32">
  <path id="Path_68" data-name="Path 68" d="M213.858,210.429A3.429,3.429,0,1,1,210.429,207,3.429,3.429,0,0,1,213.858,210.429Zm0,0" transform="translate(-194.429 -194.429)" fill="#406eac"/>
  <path id="Path_69" data-name="Path 69" d="M151.937,137.855a3.407,3.407,0,0,0-1.952-1.952,5.692,5.692,0,0,0-1.91-.354c-1.085-.049-1.41-.06-4.157-.06s-3.072.01-4.157.06a5.7,5.7,0,0,0-1.91.354,3.408,3.408,0,0,0-1.953,1.952,5.694,5.694,0,0,0-.354,1.91c-.049,1.085-.06,1.41-.06,4.157s.011,3.072.06,4.157a5.692,5.692,0,0,0,.354,1.91,3.406,3.406,0,0,0,1.952,1.952,5.684,5.684,0,0,0,1.91.354c1.085.049,1.41.06,4.157.06s3.073-.01,4.157-.06a5.685,5.685,0,0,0,1.91-.354,3.407,3.407,0,0,0,1.952-1.952,5.7,5.7,0,0,0,.354-1.91c.049-1.085.06-1.41.06-4.157s-.01-3.072-.06-4.157A5.685,5.685,0,0,0,151.937,137.855ZM143.918,149.2a5.282,5.282,0,1,1,5.282-5.282A5.282,5.282,0,0,1,143.918,149.2Zm5.491-9.539a1.234,1.234,0,1,1,1.234-1.234A1.234,1.234,0,0,1,149.409,139.665Zm0,0" transform="translate(-127.918 -127.922)" fill="#406eac"/>
  <path id="Path_70" data-name="Path 70" d="M16,0A16,16,0,1,0,32,16,16,16,0,0,0,16,0Zm9.132,19.788a6.741,6.741,0,0,1-.427,2.23,4.7,4.7,0,0,1-2.687,2.687,6.745,6.745,0,0,1-2.23.427c-.98.045-1.293.055-3.788.055s-2.808-.011-3.788-.055a6.745,6.745,0,0,1-2.23-.427A4.7,4.7,0,0,1,7.3,22.018a6.739,6.739,0,0,1-.427-2.23c-.045-.98-.056-1.293-.056-3.788s.01-2.808.055-3.788a6.741,6.741,0,0,1,.427-2.23A4.7,4.7,0,0,1,9.982,7.295a6.747,6.747,0,0,1,2.23-.427c.98-.045,1.293-.055,3.788-.055s2.808.011,3.788.056a6.748,6.748,0,0,1,2.23.427,4.7,4.7,0,0,1,2.687,2.687,6.74,6.74,0,0,1,.427,2.23c.045.98.055,1.293.055,3.788S25.177,18.808,25.132,19.788Zm0,0" fill="#406eac"/>
</svg>
