<svg xmlns="http://www.w3.org/2000/svg" width="23" height="21.998" viewBox="0 0 23 21.998">
  <path id="Subtraction_11" data-name="Subtraction 11" d="M10.872,22a.385.385,0,0,1-.307-.129,1.1,1.1,0,0,1-.105-.845l.027-.182v0c.137-.919.227-1.526-.054-1.884a1.227,1.227,0,0,0-.912-.365A10.754,10.754,0,0,1,6.37,17.8a12.464,12.464,0,0,1-4.351-3.057A7.364,7.364,0,0,1,.427,12.086,7.888,7.888,0,0,1,.075,10.6,8.247,8.247,0,0,1,.01,9.078a8.437,8.437,0,0,1,.7-2.964A7.915,7.915,0,0,1,2.452,3.587,12.811,12.811,0,0,1,6.877.755,12,12,0,0,1,8.782.215a11.409,11.409,0,0,1,1.477-.19c.272-.017.563-.025.863-.025a16.34,16.34,0,0,1,2.408.179,14.132,14.132,0,0,1,3.052.8A10.941,10.941,0,0,1,19.67,2.79a10.07,10.07,0,0,1,2.515,3.22,7.384,7.384,0,0,1-.746,7.887,15.785,15.785,0,0,1-2.451,2.762c-.837.761-1.626,1.356-2.148,1.749l-.011.008-.1.074a56.121,56.121,0,0,1-5.278,3.316A1.315,1.315,0,0,1,10.872,22Zm.506-12.961h0l2.315,3.2a.6.6,0,0,0,.484.247.587.587,0,0,0,.209-.038.6.6,0,0,0,.425-.575V7.223a.6.6,0,1,0-1.194,0v2.87L11.326,6.921a.614.614,0,0,0-1.141.3v4.654a.6.6,0,1,0,1.194,0V9.038ZM16.3,6.622a.6.6,0,0,0-.6.6v4.654a.6.6,0,0,0,.6.6h2.239a.6.6,0,0,0,0-1.2H16.9V10.225h1.642a.6.6,0,0,0,0-1.2H16.9v-1.2h1.642a.6.6,0,0,0,0-1.2Zm-7.612,0a.6.6,0,0,0-.6.6v4.654a.6.6,0,1,0,1.194,0V7.223A.6.6,0,0,0,8.692,6.622Zm-4.03,0a.6.6,0,0,0-.6.6v4.654a.6.6,0,0,0,.6.6H6.9a.6.6,0,0,0,0-1.2H5.259V7.223A.6.6,0,0,0,4.662,6.622Z" fill="#fff"/>
</svg>
