<svg xmlns="http://www.w3.org/2000/svg" xmlns:xlink="http://www.w3.org/1999/xlink" width="49.968" height="49.968" viewBox="0 0 49.968 49.968">
  <defs>
    <filter id="linkedin" x="0" y="0" width="49.968" height="49.968" filterUnits="userSpaceOnUse">
      <feOffset dy="3" input="SourceAlpha"/>
      <feGaussianBlur stdDeviation="3" result="blur"/>
      <feFlood flood-opacity="0.161"/>
      <feComposite operator="in" in2="blur"/>
      <feComposite in="SourceGraphic"/>
    </filter>
  </defs>
  <g id="linkedin-2" data-name="linkedin" transform="translate(9 6)">
    <g transform="matrix(1, 0, 0, 1, -9, -6)" filter="url(#linkedin)">
      <path id="linkedin-3" data-name="linkedin" d="M15.984,0A15.984,15.984,0,1,0,31.968,15.984,15.986,15.986,0,0,0,15.984,0ZM11.339,24.163H7.446V12.452h3.893ZM9.393,10.852H9.367a2.029,2.029,0,1,1,.051-4.047,2.03,2.03,0,1,1-.026,4.047ZM25.376,24.163H21.483V17.9c0-1.575-.564-2.648-1.972-2.648a2.131,2.131,0,0,0-2,1.424,2.666,2.666,0,0,0-.128.95v6.54H13.493s.051-10.613,0-11.712h3.893V14.11a3.865,3.865,0,0,1,3.508-1.933c2.561,0,4.482,1.674,4.482,5.271Zm0,0" transform="translate(9 6)" fill="#406eac"/>
    </g>
  </g>
</svg>
