<svg xmlns="http://www.w3.org/2000/svg" width="188.727" height="100" viewBox="0 0 188.727 100">
  <g id="Logo2" transform="translate(0 5.854)">
    <path id="Icon_metro-hammer" data-name="Icon metro-hammer" d="M.869,57.591l34.5-31.41-1.606-1.61a7.364,7.364,0,0,1-2.133-4.755c-.063-.028-.126-.057-.186-.091l-6.477-4.05a2.725,2.725,0,0,1,.144-3.616L36.379.763A2.706,2.706,0,0,1,39.985.619l4.04,6.494c.033.061.062.124.091.187a7.326,7.326,0,0,1,4.742,2.139l6.127,6.144a7.364,7.364,0,0,1,2.133,4.755c.063.028.126.058.186.091l6.477,4.05a2.724,2.724,0,0,1-.143,3.616l-11.265,11.3a2.707,2.707,0,0,1-3.607.144L44.727,33.04c-.033-.06-.062-.123-.091-.187a7.324,7.324,0,0,1-4.742-2.138l-1.779-1.784L6.789,63.527a2.16,2.16,0,0,1-3.111.359L.511,60.711a2.175,2.175,0,0,1,.359-3.12Z" transform="matrix(0.309, -0.951, 0.951, 0.309, 107.581, 61.246)" fill="#406eac"/>
    <g id="Group_6666" data-name="Group 6666" transform="translate(0 0.146)">
      <text id="LAW" transform="translate(0 45)" fill="#406eac" font-size="47" font-family="SegoeUI-Bold, Segoe UI" font-weight="700" letter-spacing="0.03em"><tspan x="0" y="0">L</tspan><tspan y="0" fill="#616161">AW</tspan></text>
      <text id="Livery" transform="translate(0 82)" fill="#406eac" font-size="47" font-family="SegoeUI-Bold, Segoe UI" font-weight="700" letter-spacing="0.03em"><tspan x="0" y="0">L</tspan><tspan y="0" fill="#616161">ivery</tspan></text>
    </g>
  </g>
</svg>
