<svg id="youtube" xmlns="http://www.w3.org/2000/svg" width="32" height="32" viewBox="0 0 32 32">
  <path id="Path_63" data-name="Path 63" d="M224.113,214.535l5.639-3.248-5.639-3.248Zm0,0" transform="translate(-210.333 -195.287)" fill="#406eac"/>
  <path id="Path_64" data-name="Path 64" d="M16,0A16,16,0,1,0,32,16,16,16,0,0,0,16,0ZM26,16.016a26.407,26.407,0,0,1-.412,4.81,2.505,2.505,0,0,1-1.762,1.762C22.259,23,16,23,16,23s-6.242,0-7.824-.428a2.506,2.506,0,0,1-1.762-1.762A26.292,26.292,0,0,1,6,16a26.39,26.39,0,0,1,.412-4.809A2.556,2.556,0,0,1,8.176,9.412C9.741,9,16,9,16,9s6.259,0,7.823.428a2.506,2.506,0,0,1,1.762,1.762A25.06,25.06,0,0,1,26,16.016Zm0,0" fill="#406eac"/>
</svg>
